<?xml version="1.0" encoding="UTF-8"?>
<!DOCTYPE svg PUBLIC "-//W3C//DTD SVG 1.1//EN" "http://www.w3.org/Graphics/SVG/1.1/DTD/svg11.dtd">
<!-- Creator: CorelDRAW X8 -->
<svg xmlns="http://www.w3.org/2000/svg" xml:space="preserve" width="84.6666mm" height="84.6666mm" version="1.1" style="shape-rendering:geometricPrecision; text-rendering:geometricPrecision; image-rendering:optimizeQuality; fill-rule:evenodd; clip-rule:evenodd"
viewBox="0 0 8467 8467"
 xmlns:xlink="http://www.w3.org/1999/xlink">
 <defs>
  <style type="text/css">
   <![CDATA[
    .fil1 {fill:#8CCA7F;fill-rule:nonzero}
    .fil0 {fill:#329DBF;fill-rule:nonzero}
    .fil4 {fill:#467358;fill-rule:nonzero}
    .fil2 {fill:#2D373E;fill-rule:nonzero}
    .fil3 {fill:#2E5E70;fill-rule:nonzero}
   ]]>
  </style>
 </defs>
 <g id="Camada_x0020_1">
  <metadata id="CorelCorpID_0Corel-Layer"/>
  <path class="fil0" d="M8467 4233c0,2338 -1896,4234 -4234,4234 -2338,0 -4233,-1896 -4233,-4234 0,-2338 1895,-4233 4233,-4233 2338,0 4234,1895 4234,4233z"/>
  <polygon class="fil1" points="1534,4899 1532,4909 "/>
  <path class="fil1" d="M4080 4842l-449 -299 -166 -14 -151 -296 -286 -148 -316 7 -150 126 -144 -284 -310 8 -126 135 -321 0 -7 -146 -139 -136 -7 -162c0,0 -173,-30 -165,5 9,35 -132,128 -132,128 -34,-15 -147,-288 -147,-288l141 -146c0,0 434,10 478,-2 44,-11 252,118 281,135 28,17 326,-296 314,-319 -12,-24 145,-539 142,-571 -2,-32 289,-305 289,-305l466 -7 -3 -295 45 -4 414 154 287 -306 -156 -5c25,-98 -255,-473 -288,-443 -33,29 -276,143 -276,143l-625 10 -164 290 -129 -139 -169 -9 6 -306 395 -142 69 -3 156 145 399 -144 338 -6c-28,-214 -291,-448 -291,-448l-313 0c32,34 -403,287 -403,287 -22,10 -76,0 -76,0 -58,-188 -551,-301 -551,-301l-6 4c-1616,1101 -1784,2838 -1784,2838l19 15 72 25 184 21 132 139c0,0 -8,-41 180,1 188,42 410,295 410,295l323 6 140 148 302 0 4 167c0,0 -145,118 -179,180 -30,55 -90,272 -103,319 3,-3 7,14 9,131 4,183 429,562 429,562l298 12 11 317 290 547c0,0 -31,366 -4,361 0,0 81,234 128,242 0,0 113,273 108,293 0,0 55,119 70,180 15,60 157,175 157,175l284 -12c0,0 -133,-158 -165,-190 -32,-32 -123,-222 -123,-222 0,0 9,-14 -3,-67 -12,-54 139,-350 138,-400 -2,-51 321,-164 321,-164l-3 -464 300 -151c0,0 -6,-272 12,-304 19,-32 242,-88 293,-153 50,-66 131,-417 141,-437 10,-21 -131,-338 -145,-313z"/>
  <polygon class="fil1" points="3181,2586 3329,2717 3473,2586 3327,2431 3167,2431 3167,2552 "/>
  <polygon class="fil1" points="3611,2552 3460,2431 3473,2276 3776,2276 3762,2414 3648,2532 "/>
  <polygon class="fil1" points="5592,1520 5592,1668 5750,1799 5857,1678 5760,1540 "/>
  <polygon class="fil1" points="5911,1520 6046,1389 6325,1520 6200,1799 6049,1799 6049,1641 "/>
  <path class="fil1" d="M6649 756l0 441c0,0 22,50 173,192l283 111 -135 159 -321 19 -149 121 0 303 -148 -125 -310 4 -131 285 145 283 269 30 198 -188c0,0 293,-91 400,-256 108,-165 138,212 138,212l44 232 151 131 283 -141 -256 -303 118 -134 296 252 16 171 175 21 125 134 177 15c0,0 -388,-1175 -1541,-1969z"/>
  <path class="fil1" d="M7457 6977l-211 -161 0 -310 -262 -551 282 -343 -141 -282 13 -357 -269 -108 -309 -47 -316 189 -333 -27 -319 -135c0,0 -155,-390 -155,-410 0,-20 0,-451 0,-451l128 -134 27 -525 133 -127 297 0 229 -142 551 -40 417 283c0,0 370,-263 498,-229 127,34 208,87 282,101 74,13 336,10 336,10 0,0 680,1930 -878,3796z"/>
  <path class="fil2" d="M4597 8451c1144,-97 2157,-649 2860,-1474l0 0c0,0 1,0 1,-1 156,-183 297,-381 421,-589 431,-718 575,-1413 600,-1971 -92,2137 -1767,3863 -3882,4035z"/>
  <path class="fil3" d="M4249 8465c-1466,0 -2758,-745 -3518,-1878 594,399 1295,651 2051,705 13,37 22,66 21,72 0,0 55,119 70,180 15,60 157,175 157,175l284 -12c0,0 -133,-158 -165,-190 -28,-28 -102,-179 -119,-214 19,0 37,0 56,0 1690,0 3148,-989 3827,-2420l225 90 -13 357 141 282 -282 343 262 551 0 310 211 161c-703,825 -1716,1377 -2860,1474 -114,10 -231,14 -348,14zm3209 -1489c164,-196 303,-394 421,-589 -124,208 -265,406 -421,589z"/>
  <path class="fil4" d="M3030 7719c0,0 -142,-115 -157,-175 -15,-61 -70,-180 -70,-180 1,-6 -8,-35 -21,-72 82,6 164,9 248,11 17,35 91,186 119,214 32,32 165,190 165,190l-284 12z"/>
  <path class="fil2" d="M8482 4267c5,-642 -142,-1070 -147,-1086 -40,-155 -88,-308 -145,-456l0 0c0,0 -58,-175 -195,-435 -215,-416 -497,-791 -831,-1112 -152,-146 -323,-289 -515,-421 -10,-8 -20,-15 -31,-22 -4,-7 -9,-14 -14,-21 1133,760 1878,2052 1878,3518 0,12 0,23 0,35z"/>
  <path class="fil3" d="M7317 3234c2,-55 3,-110 3,-165 0,-129 -6,-256 -17,-382l236 -118 -256 -303 118 -134 296 252 16 171 175 21 125 134 177 15c57,148 105,301 145,456 0,0 0,0 0,0 0,0 -28,0 -68,0 -83,0 -218,-1 -268,-10 -74,-14 -155,-67 -282,-101 -8,-2 -17,-3 -26,-3 -95,0 -266,98 -374,167zm678 -944c-159,-302 -425,-719 -831,-1112 334,321 616,696 831,1112zm-949 -721c-14,-36 -28,-73 -43,-109l102 40 -59 69zm-397 -787c-10,-16 -20,-31 -31,-47 11,7 21,14 31,22 0,-1 0,-1 0,-1l0 26z"/>
  <path class="fil4" d="M8190 2725l0 0 -177 -15 -125 -134 -175 -21 -16 -171 -296 -252 -118 134 256 303 -236 118c-35,-390 -123,-765 -257,-1118l59 -69 -102 -40c-98,-238 -217,-465 -354,-678l0 -26c0,0 0,0 0,1 192,132 363,275 515,421 406,393 672,810 831,1112 137,260 195,435 195,435z"/>
  <path class="fil4" d="M7457 6977l0 0 -211 -161 0 -310 -262 -551 282 -343 -141 -282 13 -357 -225 -90c239,-503 381,-1061 404,-1649 108,-69 279,-167 374,-167 9,0 18,1 26,3 127,34 208,87 282,101 50,9 185,10 268,10 40,0 68,0 68,0 0,0 0,0 0,0 5,16 152,444 147,1086 0,50 -1,99 -3,149 -25,558 -169,1253 -600,1971 -118,195 -257,393 -421,589 0,1 -1,1 -1,1z"/>
 </g>
</svg>
