<?xml version="1.0" encoding="UTF-8"?>
<!DOCTYPE svg PUBLIC "-//W3C//DTD SVG 1.1//EN" "http://www.w3.org/Graphics/SVG/1.1/DTD/svg11.dtd">
<!-- Creator: CorelDRAW X8 -->
<svg xmlns="http://www.w3.org/2000/svg" xml:space="preserve" width="84.6666mm" height="84.6666mm" version="1.1" style="shape-rendering:geometricPrecision; text-rendering:geometricPrecision; image-rendering:optimizeQuality; fill-rule:evenodd; clip-rule:evenodd"
viewBox="0 0 8467 8467"
 xmlns:xlink="http://www.w3.org/1999/xlink">
 <defs>
  <style type="text/css">
   <![CDATA[
    .fil0 {fill:#E18D38;fill-rule:nonzero}
    .fil4 {fill:#A86B39;fill-rule:nonzero}
    .fil2 {fill:#895B35;fill-rule:nonzero}
    .fil5 {fill:#835734;fill-rule:nonzero}
    .fil1 {fill:#785333;fill-rule:nonzero}
    .fil3 {fill:#5D4830;fill-rule:nonzero}
   ]]>
  </style>
 </defs>
 <g id="Camada_x0020_1">
  <metadata id="CorelCorpID_0Corel-Layer"/>
  <path class="fil0" d="M2160 7662c-241,0 -477,-22 -706,-60l0 0c-330,-281 -615,-613 -845,-983l4333 0c-744,651 -1717,1043 -2782,1043zm3235 -1504l-5035 0 0 0c-10,-22 -20,-44 -30,-66l5119 0c-16,22 -35,45 -54,66l0 0zm-5066 -71c-66,-147 -122,-298 -170,-454l170 454zm5447 -456l-5618 0c-86,-279 -143,-571 -170,-871l6191 0c-102,308 -238,599 -403,871l0 0zm-5788 -871l0 -2c-10,-123 -15,-246 -15,-371 0,-250 22,-495 64,-733l0 -8c68,-382 186,-746 348,-1085l5 -10c75,-154 158,-303 250,-446l3 -6c753,-1170 2067,-1946 3562,-1946 242,0 478,20 707,60 46,8 93,17 139,27 32,5 65,13 96,20 45,10 90,22 135,33 5,2 11,3 17,4 50,14 99,28 148,43 10,3 20,7 29,10 37,11 73,23 109,35l5 2 0 0 -5 -2c-36,-12 -72,-24 -109,-35 -9,-3 -19,-7 -29,-10 -49,-15 -98,-29 -148,-43 -6,-1 -12,-2 -17,-4 -45,-11 -90,-23 -135,-33 -31,-7 -64,-15 -96,-20 -46,-10 -93,-19 -139,-27 579,496 1023,1146 1268,1886l-5537 0 -3 6 -250 446 -5 10 5919 0c58,280 89,570 89,867 0,73 -2,145 -5,218l-6351 0 0 8 -49 1104 0 2zm8032 -2211l0 0c-21,-44 -43,-87 -65,-129 -29,-55 -59,-109 -91,-163 -28,-50 -58,-99 -89,-147l-7 -11c-38,-58 -76,-115 -117,-172 -35,-49 -72,-98 -109,-146 -94,-120 -194,-234 -300,-343 -42,-43 -86,-86 -130,-128 -22,-20 -44,-41 -67,-61 -22,-21 -44,-41 -68,-61 -45,-40 -93,-79 -140,-116 -24,-19 -48,-38 -72,-56 -102,-79 -208,-151 -317,-219 -20,-13 -41,-25 -61,-38 -79,-47 -159,-92 -241,-135 -23,-11 -45,-23 -69,-34 -111,-54 -223,-104 -339,-149l0 0c116,45 228,95 339,149 24,11 46,23 69,34 82,42 162,87 241,135 20,13 41,25 61,38 109,68 215,140 317,219 24,18 48,37 72,56 47,37 95,76 140,116 24,20 46,40 68,61 23,20 45,41 67,61 45,41 88,84 130,128 106,109 206,223 300,343 37,48 74,97 109,146 41,57 79,114 117,172l7 11c31,48 61,97 89,147 32,54 62,108 91,163 22,42 44,85 65,129z"/>
  <path class="fil1" d="M5738 441c-14,-6 -28,-10 -42,-15 -35,-14 -71,-27 -106,-39 50,17 100,34 148,54z"/>
  <path class="fil2" d="M4205 8620c-49,0 -97,-1 -146,-3l-2 0c-48,-2 -97,-5 -145,-8 -64,-3 -129,-10 -192,-17 -64,-7 -128,-16 -190,-26 -94,-15 -187,-33 -280,-54 -45,-12 -91,-23 -137,-35l-7 -2c-43,-11 -86,-23 -129,-36 -97,-30 -191,-62 -286,-99 -44,-17 -89,-34 -133,-53 -9,-5 -19,-8 -28,-12 -55,-24 -109,-49 -163,-75 -53,-26 -107,-53 -159,-81 -45,-24 -90,-49 -133,-75 -11,-6 -21,-12 -31,-18 -78,-46 -155,-96 -229,-147 -76,-51 -149,-105 -219,-161 -49,-38 -95,-77 -142,-116 229,38 465,60 706,60 1065,0 2038,-392 2782,-1043l2861 0c-84,135 -174,264 -272,388 -20,24 -39,48 -59,72 -199,242 -424,460 -672,652 -43,34 -87,68 -133,100 -31,22 -62,44 -95,66 -28,19 -57,38 -85,55 -29,19 -57,37 -86,55 -59,36 -119,69 -180,103 -29,16 -59,32 -89,47 -112,57 -228,110 -346,158 -26,10 -52,20 -79,31 -48,17 -96,35 -144,51 -19,6 -37,13 -56,19 -110,35 -223,67 -336,93 -45,11 -90,20 -134,29 -39,8 -78,15 -117,21 -11,3 -23,5 -34,6 -38,6 -75,12 -113,17 -49,6 -97,12 -146,17 -43,4 -86,8 -130,10 -55,4 -110,7 -166,9 -42,1 -84,2 -126,2zm3847 -2462l-2657 0 0 0c19,-21 38,-44 54,-66l2632 0c-9,22 -19,44 -29,66l0 0zm202 -527l-2478 0 0 0c165,-272 301,-563 403,-871l2244 0c-2,25 -4,51 -7,77 -4,30 -6,59 -11,89 -3,23 -6,46 -10,69 -3,26 -7,53 -12,79 -2,22 -6,42 -10,63 -5,31 -11,60 -17,90 -6,28 -12,57 -18,85 -7,33 -14,64 -23,96 -18,74 -39,149 -61,223l0 0zm183 -1392c-2,-49 -5,-96 -8,-145 -4,-58 -8,-114 -15,-171 -3,-25 -5,-51 -9,-76 -3,-27 -7,-55 -11,-82 -6,-37 -12,-73 -17,-110l-2 -9 -1987 0 0 0c3,-73 5,-145 5,-218 0,-297 -31,-587 -89,-867l1723 0c4,11 11,24 16,36 20,42 39,85 58,128 20,46 38,93 56,139 5,11 8,22 13,33 17,45 34,92 49,139l3 10c18,52 35,105 50,158 15,55 30,110 44,166 6,22 11,42 15,64 8,30 14,61 21,92 2,13 4,25 7,37 5,24 9,50 14,75l2 8 2 9c5,37 11,73 17,110 4,27 8,55 11,82 4,25 6,51 9,76 7,57 11,113 15,171 3,49 6,96 8,145l0 0zm-417 -1690l-252 -450 -1588 0 0 0c-245,-740 -689,-1390 -1268,-1886 46,8 93,17 139,27 32,5 65,13 96,20 45,10 90,22 135,33 5,2 11,3 17,4 50,14 99,28 148,43 10,3 20,7 29,10 37,11 73,23 109,35l5 2 0 0c35,12 71,25 106,39 14,5 28,9 42,15l0 0c116,45 228,95 339,149 24,11 46,23 69,34 82,43 162,88 241,135 20,13 41,25 61,38 109,68 215,140 317,219 24,18 48,37 72,56 47,37 95,76 140,116 24,20 46,40 68,61 23,20 45,41 67,61 44,42 88,85 130,128 106,109 206,223 300,343 37,48 74,97 109,146 41,57 79,114 117,172l7 11c31,48 61,97 89,147 32,54 62,108 91,163 22,42 44,85 65,129z"/>
  <path class="fil3" d="M8027 2561l-1 0c-2,-4 -4,-8 -6,-12l7 12z"/>
  <path class="fil4" d="M6304 2561l-5919 0 5 -10 250 -446 3 -6 5537 0c50,150 91,304 124,462l0 0z"/>
  <path class="fil5" d="M8027 2561l-1723 0 0 0c-33,-158 -74,-312 -124,-462l1588 0 252 450c2,4 4,8 6,12l1 0z"/>
  <path class="fil4" d="M6179 4760l-6191 0 0 -2 49 -1104 0 -8 6351 0c-20,388 -92,761 -209,1114l0 0z"/>
  <path class="fil5" d="M8423 4760l-2244 0 0 0c117,-353 189,-726 209,-1114l1987 0 2 9c5,37 11,73 17,110 4,27 8,55 11,82 4,25 6,51 9,76 7,57 11,113 15,171 3,49 6,96 8,145l0 1c1,49 2,97 2,147 0,47 -1,95 -2,142 0,25 -2,51 -3,76 -3,52 -7,103 -11,155l0 0z"/>
  <path class="fil4" d="M5449 6092l-5119 0 0 0 -1 -5 0 0 -170 -454 0 0 -1 -2 5618 0c-98,161 -207,315 -327,461l0 0z"/>
  <path class="fil5" d="M8081 6092l-2632 0 0 0c120,-146 229,-300 327,-461l2478 0c-12,38 -24,76 -38,113 -8,25 -16,49 -25,72 -5,17 -11,33 -17,49 -14,38 -29,76 -45,114 -13,33 -26,64 -40,96l-8 17 0 0z"/>
  <path class="fil4" d="M4942 6619l-4333 0 0 0c-92,-148 -175,-302 -249,-461l5035 0c-139,166 -290,320 -453,461l0 0z"/>
  <path class="fil5" d="M7803 6619l-2861 0 0 0c163,-141 314,-295 453,-461l2657 0 -6 12c-17,35 -33,71 -51,106 -14,28 -29,56 -44,84 -26,51 -53,99 -81,147 -21,36 -41,71 -63,106l-4 6 0 0z"/>
 </g>
</svg>
