<?xml version="1.0" encoding="UTF-8"?>
<!DOCTYPE svg PUBLIC "-//W3C//DTD SVG 1.1//EN" "http://www.w3.org/Graphics/SVG/1.1/DTD/svg11.dtd">
<!-- Creator: CorelDRAW X8 -->
<svg xmlns="http://www.w3.org/2000/svg" xml:space="preserve" width="84.6666mm" height="84.6666mm" version="1.1" style="shape-rendering:geometricPrecision; text-rendering:geometricPrecision; image-rendering:optimizeQuality; fill-rule:evenodd; clip-rule:evenodd"
viewBox="0 0 8467 8467"
 xmlns:xlink="http://www.w3.org/1999/xlink">
 <defs>
  <style type="text/css">
   <![CDATA[
    .fil0 {fill:#C25A39;fill-rule:nonzero}
    .fil2 {fill:#77402F;fill-rule:nonzero}
    .fil1 {fill:#683D2D;fill-rule:nonzero}
   ]]>
  </style>
 </defs>
 <g id="Camada_x0020_1">
  <metadata id="CorelCorpID_0Corel-Layer"/>
  <path class="fil0" d="M4227 8467c-1,0 -2,0 -2,0 0,0 1,0 2,0zm-7 0c-1,0 -1,0 -2,0 1,0 2,0 2,0zm-6 0c-1,0 -2,0 -3,0 1,0 2,0 3,0zm-6 0c-2,0 -3,0 -4,0 1,0 2,0 4,0zm-7 0c-1,0 -2,0 -3,0 1,0 2,0 3,0zm-6 -1c-1,0 -3,0 -4,0 1,0 3,0 4,0zm-6 0c-2,0 -3,0 -5,0 2,0 3,0 5,0zm-6 0c-2315,-26 -4183,-1911 -4183,-4233 0,-2338 1895,-4233 4233,-4233 2285,0 4147,1810 4231,4074 -75,-2025 -1574,-3686 -3524,-4014 906,776 1481,1928 1481,3215 0,2338 -1895,4233 -4233,4233 -241,0 -477,-21 -707,-59 729,624 1671,1005 2702,1017zm-210 -3141c-661,0 -1198,105 -1198,236 0,130 537,235 1198,235 662,0 1198,-105 1198,-235 0,-131 -536,-236 -1198,-236zm-2135 -1297c-662,0 -1198,105 -1198,235 0,130 536,236 1198,236 661,0 1198,-106 1198,-236 0,-130 -537,-235 -1198,-235zm1198 -1740c-662,0 -1198,105 -1198,235 0,130 536,235 1198,235 661,0 1197,-105 1197,-235 0,-130 -536,-235 -1197,-235zm5431 1939c0,-1 0,-2 0,-3 0,1 0,2 0,3zm0 -7c0,-1 0,-1 0,-2 0,1 0,1 0,2zm0 -6c0,-1 0,-2 0,-3 0,1 0,2 0,3zm0 -7c0,-1 0,-2 0,-3 0,1 0,2 0,3zm-1 -6c0,-1 0,-2 0,-3 0,1 0,2 0,3zm0 -7c0,-1 0,-2 0,-3 0,1 0,2 0,3zm0 -7c0,-1 0,-1 0,-2 0,1 0,2 0,2zm0 -6c0,-1 0,-2 0,-3 0,1 0,2 0,3zm0 -9c0,-1 0,-2 0,-3 0,1 0,2 0,3zm0 -7c0,0 0,-2 0,-3 0,1 0,3 0,3zm0 -6c0,-1 0,-2 0,-3 0,1 0,2 0,3zm0 -6c0,-2 0,-3 0,-4 0,1 0,2 0,4zm0 -7c0,-1 0,-2 0,-3 0,1 0,2 0,3zm0 -6c0,-1 -1,-3 -1,-4 0,1 1,3 1,4zm-1 -7c0,-1 0,-2 0,-3 0,1 0,2 0,3zm0 -5c0,-2 0,-3 0,-5 0,1 0,3 0,5zm0 -6c0,-6 0,-11 0,-17 0,6 0,12 0,17zm0 -17c0,-2 0,-4 0,-6 0,2 0,4 0,6zm0 -7c-1,-1 -1,-3 -1,-5 0,2 0,4 1,5zm-1 -6c0,-2 0,-3 0,-5 0,2 0,4 0,5zm0 -6c0,-2 0,-4 0,-5 0,1 0,3 0,5zm0 -6c0,-2 0,-4 0,-6 0,2 0,4 0,6z"/>
  <path class="fil1" d="M4233 8467c-2,0 -4,0 -6,0 2,0 4,0 6,0 2339,0 4234,-1896 4234,-4234l0 0c0,2338 -1895,4234 -4234,4234zm-8 0c-2,0 -3,0 -5,0 2,0 3,0 5,0zm-7 0c-2,0 -3,0 -4,0 1,0 2,0 4,0zm-7 0c-1,0 -2,0 -3,0 0,0 2,0 3,0zm-7 0c-1,0 -2,0 -3,0 1,0 2,0 3,0zm-6 0c-1,0 -2,0 -3,-1 1,1 2,1 3,1zm-7 -1c-1,0 -1,0 -2,0 1,0 1,0 2,0zm-7 0c0,0 0,0 -1,0 0,0 1,0 1,0zm4283 -4233c0,-2 0,-4 0,-6 0,2 0,4 0,6zm0 -9c0,-1 0,-3 0,-4 0,2 0,3 0,4zm0 -6c0,-2 0,-3 0,-4 0,1 0,2 0,4zm0 -7c0,-1 0,-3 0,-4 0,1 0,3 0,4zm0 -7c-1,-1 -1,-2 -1,-3 0,1 0,2 1,3zm-1 -6c0,-1 0,-3 0,-4 0,1 0,3 0,4zm0 -7c0,-1 0,-2 0,-4 0,2 0,3 0,4zm0 -6c0,-2 0,-3 0,-4 0,1 0,2 0,4zm0 -7c0,-2 0,-4 0,-6 0,2 0,4 0,6zm0 -9c0,-1 0,-2 0,-4 0,2 0,3 0,4zm0 -7c0,-1 0,-2 0,-3 0,1 0,2 0,3zm0 -6c0,-1 0,-2 0,-3 0,1 0,2 0,3zm0 -7c0,-1 0,-2 0,-3 0,1 0,2 0,3zm0 -6c0,-1 0,-2 0,-3 0,1 0,2 0,3zm-1 -7c0,-1 0,-2 0,-3 0,1 0,2 0,3zm0 -6c0,-1 0,-2 0,-2 0,0 0,1 0,2zm0 -7c0,0 0,0 0,-1 0,1 0,1 0,1zm0 -18l0 0 0 0zm0 -6c0,0 0,0 0,-1 0,1 0,1 0,1zm-1 -6c0,0 0,0 0,-1 0,0 0,1 0,1zm0 -6c0,0 0,-1 0,-1 0,0 0,1 0,1zm0 -6c0,-1 0,-1 0,-1 0,0 0,0 0,1zm0 -7c0,0 0,0 0,0 0,0 0,0 0,0z"/>
  <path class="fil2" d="M4233 8467c-2,0 -4,0 -6,0 -1,0 -2,0 -2,0 -2,0 -3,0 -5,0 0,0 -1,0 -2,0 -2,0 -3,0 -4,0 -1,0 -2,0 -3,0 -1,0 -3,0 -3,0 -2,0 -3,0 -4,0 -1,0 -2,0 -3,0 -1,0 -2,0 -3,0 -1,0 -2,0 -3,-1 -1,0 -3,0 -4,0 -1,0 -1,0 -2,0 -2,0 -3,0 -5,0 0,0 -1,0 -1,0 -1031,-12 -1973,-393 -2702,-1017 230,38 466,59 707,59 2338,0 4233,-1895 4233,-4233 0,-1287 -575,-2439 -1481,-3215 1950,328 3449,1989 3524,4014 0,0 0,0 0,0 0,2 0,4 0,6 0,0 0,0 0,1 0,1 0,3 0,5 0,0 0,1 0,1 0,2 0,3 0,5 0,1 0,1 0,1 0,2 0,4 1,5 0,1 0,1 0,1 0,2 0,4 0,6l0 0c0,6 0,11 0,17 0,1 0,1 0,1 0,2 0,3 0,5 0,0 0,1 0,2 0,1 0,2 0,3 0,1 0,2 0,3 0,1 1,3 1,4 0,1 0,2 0,3 0,1 0,2 0,3 0,1 0,2 0,3 0,1 0,2 0,4 0,1 0,2 0,3 0,1 0,2 0,3 0,1 0,2 0,3 0,1 0,3 0,3 0,2 0,3 0,4 0,1 0,2 0,3 0,2 0,4 0,6 0,1 0,2 0,3 0,1 0,2 0,4 0,1 0,1 0,2 0,2 0,3 0,4 0,1 0,2 0,3 0,1 0,3 0,4 0,1 0,2 0,3 0,1 0,2 1,3 0,1 0,2 0,3 0,1 0,3 0,4 0,1 0,2 0,3 0,1 0,2 0,4 0,1 0,1 0,2 0,1 0,3 0,4 0,1 0,2 0,3 0,2 0,4 0,6l0 0c0,2338 -1895,4234 -4234,4234z"/>
  <path class="fil2" d="M3036 2758c-662,0 -1198,-105 -1198,-235 0,-130 536,-235 1198,-235 661,0 1197,105 1197,235 0,130 -536,235 -1197,235z"/>
  <path class="fil2" d="M1838 4499c-662,0 -1198,-106 -1198,-236 0,-130 536,-235 1198,-235 661,0 1198,105 1198,235 0,130 -537,236 -1198,236z"/>
  <path class="fil2" d="M3973 5796c-661,0 -1198,-105 -1198,-235 0,-131 537,-236 1198,-236 662,0 1198,105 1198,236 0,130 -536,235 -1198,235z"/>
 </g>
</svg>
