<?xml version="1.0" encoding="UTF-8"?>
<!DOCTYPE svg PUBLIC "-//W3C//DTD SVG 1.1//EN" "http://www.w3.org/Graphics/SVG/1.1/DTD/svg11.dtd">
<!-- Creator: CorelDRAW X8 -->
<svg xmlns="http://www.w3.org/2000/svg" xml:space="preserve" width="84.6666mm" height="84.6666mm" version="1.1" style="shape-rendering:geometricPrecision; text-rendering:geometricPrecision; image-rendering:optimizeQuality; fill-rule:evenodd; clip-rule:evenodd"
viewBox="0 0 8467 8467"
 xmlns:xlink="http://www.w3.org/1999/xlink">
 <defs>
  <style type="text/css">
   <![CDATA[
    .fil0 {fill:#A4A9AB;fill-rule:nonzero}
    .fil2 {fill:#68696A;fill-rule:nonzero}
    .fil1 {fill:#5C5E5F;fill-rule:nonzero}
   ]]>
  </style>
 </defs>
 <g id="Camada_x0020_1">
  <metadata id="CorelCorpID_0Corel-Layer"/>
  <path class="fil0" d="M4233 8467c-3,0 -7,0 -11,0 4,0 7,0 11,0zm-12 0c-4,0 -8,0 -11,0 3,0 7,0 11,0zm-13 0c-4,0 -7,-1 -11,-1 4,0 7,1 11,1zm-12 -1c-4,0 -8,0 -12,0 4,0 8,0 12,0zm-12 0c-2315,-26 -4184,-1911 -4184,-4233 0,-2338 1895,-4233 4233,-4233 2289,0 4153,1817 4231,4087 -69,-2031 -1570,-3698 -3524,-4027 906,777 1481,1929 1481,3215 0,2338 -1895,4233 -4233,4233 -241,0 -477,-21 -706,-59 728,624 1670,1006 2702,1017zm4283 -4233c0,-3 0,-7 0,-11 0,4 0,8 0,11l0 0zm0 -12c0,-4 0,-7 0,-11 0,3 0,7 0,11zm0 -13c0,-3 -1,-7 -1,-11 0,4 1,8 1,11zm-1 -12c0,-4 0,-8 0,-11 0,4 0,7 0,11zm0 -13c0,-7 0,-15 0,-22 0,7 0,15 0,22zm0 -24c0,-3 0,-7 0,-11 0,4 0,8 0,11zm0 -12c0,-4 0,-7 0,-11 0,4 0,7 0,11zm0 -12c-1,-16 -1,-32 -2,-48 1,16 1,32 2,48z"/>
  <path class="fil1" d="M4222 8467c0,0 -1,0 -1,0 0,0 1,0 1,0zm-12 0c-1,0 -1,0 -2,0 1,0 1,0 2,0zm-13 -1c0,0 -1,0 -1,0 0,0 1,0 1,0zm-13 0c0,0 0,0 0,0 0,0 0,0 0,0zm4283 -4244c0,-1 0,-1 0,-1 0,0 0,1 0,1zm0 -12c0,-1 0,-1 0,-2 0,1 0,1 0,2zm-1 -13c0,0 0,-1 0,-1 0,0 0,1 0,1zm0 -12c0,-1 0,-1 0,-2 0,1 0,1 0,2zm0 -24c0,-1 0,-1 0,-2 0,1 0,1 0,2zm0 -13c0,0 0,-1 0,-1 0,0 0,1 0,1zm0 -12c0,0 0,-1 0,-1 0,0 0,1 0,1zm-2 -49l0 0 0 0z"/>
  <path class="fil2" d="M4233 8467l0 0c-4,0 -7,0 -11,0 0,0 -1,0 -1,0 -4,0 -8,0 -11,0 -1,0 -1,0 -2,0 -4,0 -7,-1 -11,-1 0,0 -1,0 -1,0 -4,0 -8,0 -12,0 0,0 0,0 0,0 -1032,-11 -1974,-393 -2702,-1017 229,38 465,59 706,59 2338,0 4233,-1895 4233,-4233 0,-1286 -575,-2438 -1481,-3215 1954,329 3455,1996 3524,4027l0 0c1,16 1,32 2,48 0,0 0,1 0,1 0,4 0,7 0,11 0,0 0,1 0,1 0,4 0,8 0,11 0,1 0,1 0,2 0,7 0,15 0,22 0,1 0,1 0,2 0,3 0,7 0,11 0,0 0,1 0,1 0,4 1,8 1,11 0,1 0,1 0,2 0,4 0,7 0,11 0,0 0,0 0,1 0,4 0,8 0,11 0,2338 -1896,4234 -4234,4234z"/>
 </g>
</svg>
