<?xml version="1.0" encoding="UTF-8"?>
<!DOCTYPE svg PUBLIC "-//W3C//DTD SVG 1.1//EN" "http://www.w3.org/Graphics/SVG/1.1/DTD/svg11.dtd">
<!-- Creator: CorelDRAW X8 -->
<svg xmlns="http://www.w3.org/2000/svg" xml:space="preserve" width="84.6666mm" height="84.6666mm" version="1.1" style="shape-rendering:geometricPrecision; text-rendering:geometricPrecision; image-rendering:optimizeQuality; fill-rule:evenodd; clip-rule:evenodd"
viewBox="0 0 8467 8467"
 xmlns:xlink="http://www.w3.org/1999/xlink">
 <defs>
  <style type="text/css">
   <![CDATA[
    .fil0 {fill:#A4A9AB;fill-rule:nonzero}
    .fil2 {fill:#68696A;fill-rule:nonzero}
    .fil1 {fill:#5C5E5F;fill-rule:nonzero}
   ]]>
  </style>
 </defs>
 <g id="Camada_x0020_1">
  <metadata id="CorelCorpID_0Corel-Layer"/>
  <path class="fil0" d="M4221 8467c-2,0 -3,0 -5,0 1,0 3,0 5,0zm-14 0c-1,0 -3,0 -5,0 2,0 4,0 5,0zm-13 -1c-1,0 -3,0 -5,0 2,0 4,0 5,0zm-13 0c-2,0 -4,0 -6,0 2,0 4,0 6,0zm-12 0c-2,0 -5,0 -7,0 2,0 5,0 7,0zm-13 0c-2,0 -5,0 -7,0 2,0 5,0 7,0zm-12 0c-3,0 -5,0 -8,0 2,0 5,0 8,0zm-12 -1c-2291,-53 -4132,-1927 -4132,-4232 0,-2338 1895,-4233 4233,-4233 2240,0 4073,1739 4224,3941 -135,-1965 -1610,-3561 -3518,-3881 907,776 1482,1928 1482,3216 0,2337 -1895,4233 -4234,4233 -240,0 -476,-22 -706,-60 717,614 1640,993 2651,1016zm4335 -4245c0,-1 0,-3 0,-4 0,2 0,3 0,4zm0 -13c0,-2 -1,-3 -1,-5 0,2 1,3 1,5zm-1 -13c0,-2 0,-3 0,-5 0,2 0,3 0,5zm0 -13c0,-2 0,-4 0,-5 0,1 0,3 0,5zm0 -13c0,-2 0,-4 0,-6 0,2 0,4 0,6zm0 -13c0,-2 0,-4 0,-6 0,2 0,4 0,6zm0 -13c0,-2 0,-4 -1,-6 1,2 1,4 1,6zm-1 -13c0,-2 0,-4 0,-6 0,2 0,4 0,6zm0 -14c0,-4 0,-7 0,-11 0,4 0,8 0,11zm-1 -17c0,-2 0,-5 0,-7 0,2 0,5 0,7zm0 -13c0,-2 0,-5 0,-7 0,2 0,5 0,7zm0 -12c-1,-3 -1,-6 -1,-8 0,2 0,5 1,8zm-1 -13c0,-3 0,-5 0,-8 0,3 0,5 0,8zm0 -13c-1,-2 -1,-5 -1,-8 0,3 0,6 1,8zm-1 -12c0,-3 0,-6 0,-9 0,3 0,6 0,9zm-1 -11c-1,-24 -2,-47 -4,-71 2,23 3,47 4,71zm-4 -71c0,-4 0,-8 0,-12 0,4 0,8 0,12z"/>
  <path class="fil1" d="M4233 8467c-4,0 -8,0 -12,0 4,0 8,0 12,0 2338,0 4234,-1895 4234,-4234l0 0c0,2339 -1896,4234 -4234,4234zm-17 0c-3,0 -6,0 -9,0 3,0 6,0 9,0zm-14 0c-2,0 -5,0 -8,-1 3,1 6,1 8,1zm-13 -1c-3,0 -5,0 -8,0 3,0 5,0 8,0zm-14 0c-2,0 -4,0 -6,0 2,0 4,0 6,0zm-13 0c-2,0 -4,0 -6,0 2,0 4,0 6,0zm-13 0c-2,0 -3,0 -5,0 2,0 3,0 5,0zm-13 0c-1,0 -2,-1 -4,-1 1,0 3,1 4,1zm4331 -4233c0,-4 0,-8 0,-13 0,5 0,9 0,13zm0 -17c0,-3 0,-6 0,-9 0,3 0,6 0,9zm-1 -14c0,-2 0,-5 0,-8 0,3 0,6 0,8zm0 -13c0,-3 0,-5 0,-8 0,3 0,5 0,8zm0 -13c0,-3 0,-5 0,-8 0,3 0,5 0,8zm0 -14c0,-2 0,-4 0,-7 0,3 0,5 0,7zm0 -13c0,-2 0,-5 0,-7 0,2 0,5 0,7zm-1 -13c0,-2 0,-4 0,-7 0,3 0,5 0,7zm0 -13c0,-3 0,-5 0,-8 0,3 0,5 0,8zm0 -19c0,-2 0,-4 -1,-6 1,2 1,4 1,6zm-1 -13c0,-2 0,-4 0,-6 0,2 0,4 0,6zm0 -13c0,-2 0,-4 0,-5 0,1 0,3 0,5zm-1 -13c0,-2 0,-3 0,-5 0,2 0,3 0,5zm0 -13c0,-2 0,-3 0,-5 0,2 0,3 0,5zm-1 -13c0,-1 0,-3 0,-4 0,1 0,3 0,4zm0 -13c0,-1 -1,-1 -1,-2 0,0 1,1 1,2zm-5 -73l0 0 0 0zm0 -12c0,0 0,0 0,0 0,0 0,0 0,0z"/>
  <path class="fil2" d="M4233 8467c-4,0 -8,0 -12,0 -2,0 -4,0 -5,0 -3,0 -6,0 -9,0 -1,0 -3,0 -5,0 -2,0 -5,0 -8,-1 -1,0 -3,0 -5,0 -3,0 -5,0 -8,0 -2,0 -4,0 -6,0 -2,0 -4,0 -6,0 -2,0 -5,0 -7,0 -2,0 -4,0 -6,0 -2,0 -5,0 -7,0 -2,0 -3,0 -5,0 -3,0 -6,0 -8,0 -1,0 -3,-1 -4,-1 -1011,-23 -1934,-402 -2651,-1016 230,38 466,60 706,60 2339,0 4234,-1896 4234,-4233 0,-1288 -575,-2440 -1482,-3216 1908,320 3383,1916 3518,3881 0,0 0,0 0,0 0,4 0,8 0,12l0 0c2,24 3,47 4,71 0,1 1,1 1,2 0,3 0,6 0,9 0,1 0,3 0,4 0,3 0,6 1,8 0,2 0,3 0,5 0,3 0,5 0,8 0,2 0,3 0,5 0,2 0,5 1,8 0,1 0,3 0,5 0,2 0,5 0,7 0,2 0,4 0,6 0,2 0,5 0,7 1,2 1,4 1,6 0,4 0,7 0,11 0,3 0,5 0,8 0,2 0,4 0,6 0,3 0,5 0,7 1,2 1,4 1,6 0,2 0,5 0,7 0,2 0,4 0,6 0,3 0,5 0,7 0,2 0,4 0,6 0,3 0,5 0,8 0,1 0,3 0,5 0,3 0,5 0,8 0,2 0,3 0,5 0,3 0,6 0,8 0,2 1,3 1,5 0,3 0,6 0,9 0,1 0,3 0,4 0,5 0,9 0,13l0 0c0,2339 -1896,4234 -4234,4234z"/>
 </g>
</svg>
