<?xml version="1.0" encoding="UTF-8"?>
<!DOCTYPE svg PUBLIC "-//W3C//DTD SVG 1.1//EN" "http://www.w3.org/Graphics/SVG/1.1/DTD/svg11.dtd">
<!-- Creator: CorelDRAW X8 -->
<svg xmlns="http://www.w3.org/2000/svg" xml:space="preserve" width="84.6666mm" height="84.6666mm" version="1.1" style="shape-rendering:geometricPrecision; text-rendering:geometricPrecision; image-rendering:optimizeQuality; fill-rule:evenodd; clip-rule:evenodd"
viewBox="0 0 8467 8467"
 xmlns:xlink="http://www.w3.org/1999/xlink">
 <defs>
  <style type="text/css">
   <![CDATA[
    .fil6 {fill:#F7CB30;fill-rule:nonzero}
    .fil3 {fill:#F5DF8E;fill-rule:nonzero}
    .fil0 {fill:#F6D874;fill-rule:nonzero}
    .fil2 {fill:#E6D49D;fill-rule:nonzero}
    .fil4 {fill:#E5CB7B;fill-rule:nonzero}
    .fil1 {fill:#9B7D3C;fill-rule:nonzero}
    .fil5 {fill:#787057;fill-rule:nonzero}
   ]]>
  </style>
 </defs>
 <g id="Camada_x0020_1">
  <metadata id="CorelCorpID_0Corel-Layer"/>
  <path class="fil0" d="M6343 3693c330,1156 -339,2360 -1495,2690 -1156,330 -2360,-339 -2691,-1495 -330,-1156 340,-2360 1495,-2690 1156,-331 2361,339 2691,1495z"/>
  <path class="fil0" d="M6343 3693c330,1156 -339,2360 -1495,2690 -1156,330 -2360,-339 -2691,-1495 -330,-1156 340,-2360 1495,-2690 1156,-331 2361,339 2691,1495z"/>
  <path class="fil1" d="M6334 3668c-603,202 -1292,507 -2055,724 -760,218 -1512,325 -2129,471 -18,-60 -28,-115 -30,-123 530,-102 1288,-285 2117,-521 831,-238 1552,-487 2056,-681 3,8 29,66 41,130z"/>
  <path class="fil2" d="M5578 2568c-528,-407 -1237,-567 -1928,-370 -691,198 -1208,708 -1442,1333l3370 -963z"/>
  <path class="fil3" d="M2133 3774c-54,224 -74,459 -53,697l4109 -1173c-109,-213 -249,-403 -414,-565l-3642 1041z"/>
  <path class="fil4" d="M2818 5929c537,469 1293,665 2030,454 737,-210 1276,-776 1484,-1458l-3514 1004z"/>
  <path class="fil5" d="M6347 3693c-331,-1156 -1535,-1826 -2691,-1495 -154,44 -300,104 -436,177 991,-52 1922,581 2206,1576 286,1001 -179,2039 -1060,2513 161,-9 324,-34 485,-81 1156,-330 1826,-1534 1496,-2690z"/>
  <path class="fil1" d="M6199 3336c669,-141 867,-112 890,-33 40,139 -1221,621 -2816,1077 -1595,455 -2920,712 -2959,573 -23,-79 134,-214 769,-446l0 -12c-1373,452 -2049,798 -2010,934 54,190 1961,-188 4259,-845 2297,-656 4116,-1342 4062,-1531 -38,-135 -815,-64 -2192,268 -14,4 11,11 -3,15z"/>
  <path class="fil6" d="M6205 3343c652,-141 797,-108 818,-37 36,126 -1200,589 -2761,1035 -1561,445 -2855,705 -2891,580 -20,-72 90,-183 713,-406l0 -11c-1345,439 -1964,752 -1929,874 49,171 1911,-210 4160,-853 2248,-642 4031,-1301 3983,-1472 -35,-122 -744,-52 -2091,277 -13,3 11,10 -2,13z"/>
 </g>
</svg>
