<?xml version="1.0" encoding="UTF-8"?>
<!DOCTYPE svg PUBLIC "-//W3C//DTD SVG 1.1//EN" "http://www.w3.org/Graphics/SVG/1.1/DTD/svg11.dtd">
<!-- Creator: CorelDRAW X8 -->
<svg xmlns="http://www.w3.org/2000/svg" xml:space="preserve" width="84.6666mm" height="84.6666mm" version="1.1" style="shape-rendering:geometricPrecision; text-rendering:geometricPrecision; image-rendering:optimizeQuality; fill-rule:evenodd; clip-rule:evenodd"
viewBox="0 0 8467 8467"
 xmlns:xlink="http://www.w3.org/1999/xlink">
 <defs>
  <style type="text/css">
   <![CDATA[
    .fil0 {fill:#F89833;fill-rule:nonzero}
    .fil1 {fill:#E88437;fill-rule:nonzero}
    .fil2 {fill:#D25D39;fill-rule:nonzero}
   ]]>
  </style>
 </defs>
 <g id="Camada_x0020_1">
  <metadata id="CorelCorpID_0Corel-Layer"/>
  <path class="fil0" d="M4233 7322c-1705,0 -3088,-1383 -3088,-3089 0,-1705 1383,-3088 3088,-3088 1706,0 3089,1383 3089,3088 0,1706 -1383,3089 -3089,3089zm0 -7322c-2338,0 -4233,1895 -4233,4233 0,2338 1895,4234 4233,4234 2338,0 4234,-1896 4234,-4234 0,-2338 -1896,-4233 -4234,-4233z"/>
  <path class="fil1" d="M6774 4233c0,1403 -1138,2541 -2541,2541 -1403,0 -2540,-1138 -2540,-2541 0,-1403 1137,-2540 2540,-2540 1403,0 2541,1137 2541,2540z"/>
  <path class="fil2" d="M5165 4233c0,515 -417,932 -932,932 -514,0 -931,-417 -931,-932 0,-514 417,-931 931,-931 515,0 932,417 932,931z"/>
 </g>
</svg>
