<?xml version="1.0" encoding="UTF-8"?>
<!DOCTYPE svg PUBLIC "-//W3C//DTD SVG 1.1//EN" "http://www.w3.org/Graphics/SVG/1.1/DTD/svg11.dtd">
<!-- Creator: CorelDRAW X8 -->
<svg xmlns="http://www.w3.org/2000/svg" xml:space="preserve" width="84.6666mm" height="84.6666mm" version="1.1" style="shape-rendering:geometricPrecision; text-rendering:geometricPrecision; image-rendering:optimizeQuality; fill-rule:evenodd; clip-rule:evenodd"
viewBox="0 0 8467 8467"
 xmlns:xlink="http://www.w3.org/1999/xlink">
 <defs>
  <style type="text/css">
   <![CDATA[
    .fil0 {fill:#329DBF;fill-rule:nonzero}
    .fil1 {fill:#2D5866;fill-rule:nonzero}
   ]]>
  </style>
 </defs>
 <g id="Camada_x0020_1">
  <metadata id="CorelCorpID_0Corel-Layer"/>
  <path class="fil0" d="M8467 4233c0,2338 -1896,4234 -4234,4234 -2338,0 -4233,-1896 -4233,-4234 0,-2338 1895,-4233 4233,-4233 2338,0 4234,1895 4234,4233z"/>
  <path class="fil1" d="M4940 60c906,776 1481,1928 1481,3215 0,2338 -1895,4233 -4233,4233 -241,0 -477,-21 -707,-60 741,635 1701,1019 2752,1019 2338,0 4234,-1896 4234,-4234 0,-2097 -1526,-3837 -3527,-4173z"/>
 </g>
</svg>
