<?xml version="1.0" encoding="UTF-8"?>
<!DOCTYPE svg PUBLIC "-//W3C//DTD SVG 1.1//EN" "http://www.w3.org/Graphics/SVG/1.1/DTD/svg11.dtd">
<!-- Creator: CorelDRAW X8 -->
<svg xmlns="http://www.w3.org/2000/svg" xml:space="preserve" width="84.6666mm" height="84.6666mm" version="1.1" style="shape-rendering:geometricPrecision; text-rendering:geometricPrecision; image-rendering:optimizeQuality; fill-rule:evenodd; clip-rule:evenodd"
viewBox="0 0 8467 8467"
 xmlns:xlink="http://www.w3.org/1999/xlink">
 <defs>
  <style type="text/css">
   <![CDATA[
    .fil0 {fill:#E88437;fill-rule:nonzero}
    .fil1 {fill:#774C31;fill-rule:nonzero}
   ]]>
  </style>
 </defs>
 <g id="Camada_x0020_1">
  <metadata id="CorelCorpID_0Corel-Layer"/>
  <path class="fil0" d="M8467 4234c0,2337 -1895,4233 -4234,4233 -2338,0 -4233,-1896 -4233,-4233 0,-2339 1895,-4234 4233,-4234 2339,0 4234,1895 4234,4234z"/>
  <path class="fil1" d="M4940 60c906,776 1481,1928 1481,3215 0,2338 -1895,4234 -4233,4234 -241,0 -477,-21 -707,-60 740,634 1701,1018 2752,1018 2339,0 4234,-1896 4234,-4233 0,-2098 -1525,-3838 -3527,-4174z"/>
 </g>
</svg>
