<?xml version="1.0" encoding="UTF-8"?>
<!DOCTYPE svg PUBLIC "-//W3C//DTD SVG 1.1//EN" "http://www.w3.org/Graphics/SVG/1.1/DTD/svg11.dtd">
<!-- Creator: CorelDRAW X8 -->
<svg xmlns="http://www.w3.org/2000/svg" xml:space="preserve" width="42.3332mm" height="42.3332mm" version="1.1" style="shape-rendering:geometricPrecision; text-rendering:geometricPrecision; image-rendering:optimizeQuality; fill-rule:evenodd; clip-rule:evenodd"
viewBox="0 0 4233 4233"
 xmlns:xlink="http://www.w3.org/1999/xlink">
 <defs>
  <style type="text/css">
   <![CDATA[
    .fil2 {fill:#FFE0B3;fill-rule:nonzero}
    .fil3 {fill:#F9F8F8;fill-rule:nonzero}
    .fil16 {fill:#EBB7A3;fill-rule:nonzero}
    .fil15 {fill:#EBCDA5;fill-rule:nonzero}
    .fil12 {fill:#E8E7E8;fill-rule:nonzero}
    .fil7 {fill:#E0E2E2;fill-rule:nonzero}
    .fil6 {fill:#E0E1E0;fill-rule:nonzero}
    .fil13 {fill:#D9D8D8;fill-rule:nonzero}
    .fil0 {fill:#D2D2D3;fill-rule:nonzero}
    .fil1 {fill:#BF353E;fill-rule:nonzero}
    .fil8 {fill:#BEDEF4;fill-rule:nonzero}
    .fil4 {fill:#BFBEBE;fill-rule:nonzero}
    .fil10 {fill:#8D3037;fill-rule:nonzero}
    .fil5 {fill:#B2B3B3;fill-rule:nonzero}
    .fil17 {fill:#8E6549;fill-rule:nonzero}
    .fil14 {fill:#363435;fill-rule:nonzero}
    .fil11 {fill:#363637;fill-rule:nonzero}
    .fil9 {fill:#353535;fill-rule:nonzero}
   ]]>
  </style>
 </defs>
 <g id="Camada_x0020_1">
  <metadata id="CorelCorpID_0Corel-Layer"/>
  <g id="_715751376">
   <path class="fil0" d="M2821 1382l-4 877c-1,271 -222,490 -494,489l-698 -3c-272,-1 -491,-222 -490,-494l4 -877c1,-271 222,-491 494,-489l699 3c271,1 490,222 489,494z"/>
   <polygon class="fil1" points="2819,1820 2819,1949 2645,1949 2645,1819 "/>
   <polygon class="fil1" points="2818,2057 2818,2186 2644,2185 2644,2056 "/>
   <polygon class="fil1" points="1136,2049 1135,2179 1310,2179 1310,2050 "/>
   <polygon class="fil1" points="1137,1857 1136,1986 1310,1987 1311,1857 "/>
   <path class="fil2" d="M3374 588l-65 257 -78 -19 -16 61 -77 -19 8 -31 -77 -20 8 -31 -78 -20 66 -257c5,-21 27,-34 48,-29 11,3 20,10 25,19 5,9 7,19 4,30l20 -79c6,-21 28,-34 49,-29 11,3 19,10 25,18 5,9 7,20 4,31l-8 31c5,-22 27,-35 48,-29 11,3 20,9 25,18 5,9 7,20 4,30l-12 49c5,-22 27,-35 49,-29 10,2 19,9 24,18 5,9 7,20 4,30z"/>
   <path class="fil2" d="M752 2663l-5 -265 80 -2 -2 -64 80 -1 1 32 80 -2 0 32 80 -1 5 265c1,22 -17,40 -39,41 -11,0 -21,-5 -29,-12 -7,-7 -12,-17 -12,-28l2 82c0,22 -17,40 -39,41 -11,0 -21,-4 -29,-11 -7,-8 -12,-17 -12,-28l-1 -32c1,22 -17,40 -39,40 -11,0 -21,-4 -28,-11 -8,-7 -12,-17 -12,-28l-1 -50c0,22 -18,41 -39,41 -11,0 -22,-4 -29,-11 -7,-7 -12,-17 -12,-28z"/>
   <path class="fil3" d="M2495 1797l-73 -353 -2 0c17,-4 425,-107 567,-732l352 80c-195,861 -817,1000 -844,1005z"/>
   <path class="fil3" d="M1092 2474l-361 20c-28,-483 188,-743 374,-876 196,-140 395,-167 417,-170l42 359 2 0c-1,0 -137,19 -260,112 -156,117 -228,304 -214,555z"/>
   <path class="fil1" d="M2565 1262l0 102c0,-24 -12,-47 -34,-68 22,-11 34,-22 34,-34z"/>
   <path class="fil4" d="M2074 2654c-17,69 -27,147 -28,233 -24,-9 -48,-13 -72,-13 -25,-1 -49,4 -73,12 0,-85 -9,-164 -26,-233 33,2 66,3 100,3 33,0 66,-1 99,-2z"/>
   <path class="fil5" d="M2339 3809c-5,4 -9,9 -14,13 2,-8 3,-16 4,-24 4,4 7,8 10,11z"/>
   <path class="fil4" d="M1614 3819c-5,-5 -10,-9 -14,-13 3,-4 6,-7 9,-11 2,8 3,16 5,24z"/>
   <path class="fil6" d="M1292 2455l-3 17c0,-6 1,-12 3,-17z"/>
   <path class="fil7" d="M2662 2478l-3 -17c2,5 3,11 3,17z"/>
   <path class="fil8" d="M2730 737c-1,189 -80,360 -207,487 -28,-13 -69,-24 -120,-34 72,-131 115,-279 116,-401 1,-291 -238,-528 -534,-530 -296,-1 -537,234 -538,525 -1,122 41,271 111,403 -51,9 -92,20 -120,32 -126,-128 -203,-299 -202,-488 2,-392 337,-707 750,-706 413,2 746,321 744,712z"/>
   <path class="fil9" d="M2519 789c-1,122 -44,270 -116,401 -5,9 -10,18 -15,27 -23,39 -49,77 -76,111l-28 0c28,-38 52,-79 73,-121 4,-8 8,-15 11,-23 44,-97 70,-200 71,-287 0,-95 -30,-183 -80,-256 -82,-117 -219,-194 -375,-195 -216,-1 -398,146 -446,344 -8,33 -12,67 -12,103 -1,87 24,191 68,288 -13,2 -24,4 -36,6 -70,-132 -112,-281 -111,-403 1,-291 242,-526 538,-525 296,2 535,239 534,530z"/>
   <path class="fil2" d="M2439 897c-1,87 -26,190 -71,287 -3,8 -7,15 -11,23 -21,42 -45,83 -73,121 -5,7 -11,14 -16,22 -17,20 -34,40 -53,58 -74,23 -153,35 -235,35 -82,0 -162,-14 -235,-37 -19,-18 -36,-38 -52,-59 -6,-7 -11,-14 -17,-22 -27,-38 -51,-79 -72,-122 -3,-7 -7,-15 -10,-22 -44,-97 -69,-201 -68,-288 1,-248 206,-448 458,-447 252,1 456,203 455,451z"/>
   <path class="fil9" d="M2378 1336c-42,24 -85,45 -131,61 17,-16 33,-32 49,-50 29,-3 56,-7 82,-11z"/>
   <path class="fil9" d="M1713 1395c-46,-17 -89,-38 -130,-62 25,4 53,8 82,11 15,18 31,35 48,51z"/>
   <path class="fil9" d="M2296 1347c-16,18 -32,34 -49,50 -10,4 -21,8 -32,11 19,-18 36,-38 53,-58 9,-1 18,-2 28,-3z"/>
   <path class="fil9" d="M1745 1406c-11,-4 -22,-7 -32,-11 -17,-16 -33,-33 -48,-51 9,1 18,2 28,3 16,21 33,41 52,59z"/>
   <path class="fil1" d="M2531 1296c22,21 34,44 34,68 -1,37 -29,72 -79,102 -101,61 -290,101 -507,100 -216,0 -405,-43 -506,-105 -49,-30 -77,-65 -77,-102l0 -102c0,-14 15,-27 42,-38 13,12 26,25 39,36 29,26 60,49 93,70 4,2 9,5 13,8 41,24 84,45 130,62 10,4 21,7 32,11 73,23 153,37 235,37 82,0 161,-12 235,-35 11,-3 22,-7 32,-11 46,-16 89,-37 131,-61 4,-3 8,-5 12,-8 33,-20 65,-43 94,-68 14,-12 27,-24 39,-36 27,11 42,24 42,38 0,12 -12,23 -34,34z"/>
   <path class="fil10" d="M2523 1224c-12,12 -25,24 -39,36 -26,-16 -59,-30 -96,-43 6,-9 11,-18 15,-27 51,10 92,21 120,34z"/>
   <path class="fil10" d="M1573 1213c-37,13 -69,27 -96,42 -13,-11 -26,-24 -39,-36 28,-12 69,-23 120,-32 5,9 10,17 15,26z"/>
   <path class="fil9" d="M1649 1325l-79 0c-33,-21 -64,-44 -93,-70 27,-15 59,-29 96,-42 23,40 48,77 76,112z"/>
   <path class="fil9" d="M2484 1260c-29,25 -61,48 -94,68l-78 0c27,-34 53,-72 76,-111 37,13 70,27 96,43z"/>
   <path class="fil11" d="M2390 1328c-4,3 -8,5 -12,8 -26,4 -53,8 -82,11 5,-6 10,-13 16,-19l78 0z"/>
   <path class="fil9" d="M1665 1344c-29,-3 -57,-7 -82,-11 -4,-3 -9,-6 -13,-8l79 0c5,6 10,13 16,19z"/>
   <path class="fil9" d="M1676 1325l-27 0c-28,-35 -53,-72 -76,-112 -5,-9 -10,-17 -15,-26 12,-2 23,-4 36,-6 3,7 7,15 10,22 21,43 45,84 72,122z"/>
   <path class="fil9" d="M2312 1328c-6,6 -11,13 -16,19 -10,1 -19,2 -28,3 5,-8 11,-15 16,-22l28 0z"/>
   <path class="fil9" d="M1693 1347c-10,-1 -19,-2 -28,-3 -6,-6 -11,-13 -16,-19l27 0c6,8 11,15 17,22z"/>
   <path class="fil12" d="M2240 2149c0,50 -41,90 -90,90l-347 -2c-50,0 -90,-41 -90,-90l1 -230c1,-49 41,-90 91,-89l346 1c50,0 90,41 90,91l-1 229zm-30 -389l-464 -2c-66,0 -120,54 -120,120l-2 307c0,67 54,121 120,121l464 2c66,1 121,-53 121,-120l1 -307c1,-66 -53,-120 -120,-121z"/>
   <path class="fil3" d="M2008 2142l-62 0c-60,-1 -109,-50 -108,-109 0,-60 49,-109 109,-108l62 0c59,0 108,49 108,109 -1,60 -50,108 -109,108zm143 -313l-346 -1c-50,-1 -90,40 -91,89l-1 230c0,49 40,90 90,90l347 2c49,0 90,-40 90,-90l1 -229c0,-50 -40,-91 -90,-91z"/>
   <path class="fil13" d="M2117 2034c-1,60 -50,108 -109,108l-62 0c-60,-1 -109,-50 -108,-109 0,-60 49,-109 109,-108l62 0c59,0 108,49 108,109z"/>
   <path class="fil12" d="M2117 2010c-1,59 -49,108 -109,108l-62 -1c-60,0 -108,-49 -108,-108 0,-60 49,-109 109,-108l62 0c59,0 108,49 108,109z"/>
   <path class="fil4" d="M1594 3586c0,72 5,143 15,209 -3,4 -6,7 -9,11 -65,-58 -152,-100 -248,-101 -60,0 -117,16 -167,43 -64,-158 -75,-404 -19,-668 45,-210 124,-392 216,-517 103,47 282,81 493,90 17,69 26,148 26,233 -173,63 -305,352 -307,700z"/>
   <path class="fil3" d="M1744 2306c-66,0 -120,-54 -120,-121l2 -307c0,-66 54,-120 120,-120l464 2c67,1 121,55 120,121l-1 307c0,67 -55,121 -121,120l-464 -2zm915 155l-173 -995c-101,61 -290,101 -507,100 -216,0 -405,-43 -506,-105l-181 994 0 0c-4,23 3,47 19,63 16,16 40,31 71,45 103,47 282,81 493,90 33,2 66,3 100,3 33,0 66,-1 99,-2 211,-7 391,-39 494,-85 31,-14 55,-29 71,-45 17,-17 24,-40 20,-63l0 0z"/>
   <path class="fil4" d="M2754 3755c-50,-27 -106,-44 -166,-44 -96,-1 -184,41 -249,98 -3,-3 -6,-7 -10,-11 11,-66 18,-136 18,-209 1,-347 -128,-637 -301,-702 1,-86 11,-164 28,-233 211,-7 391,-39 494,-85 91,125 168,308 211,518 54,265 40,511 -25,668z"/>
   <path class="fil1" d="M1712 4011c0,25 -7,45 -19,62 -49,64 -184,73 -343,72 -199,-1 -361,-16 -360,-137l175 24c123,17 248,17 372,1l131 -16 44 -6z"/>
   <path class="fil3" d="M1712 4011l-44 6 -131 16c-124,16 -249,16 -372,-1l-175 -24c0,-85 79,-199 195,-260 50,-27 107,-43 167,-43 96,1 183,43 248,101 4,4 9,8 14,13 61,60 99,133 98,192z"/>
   <path class="fil1" d="M2948 4016c-1,122 -163,135 -362,134 -159,0 -294,-10 -342,-75 -13,-17 -19,-37 -19,-62l44 6 131 18c123,17 249,18 372,2l176 -23z"/>
   <path class="fil3" d="M2948 4016l-176 23c-123,16 -249,15 -372,-2l-131 -18 -44 -6c0,-59 38,-132 100,-191 5,-4 9,-9 14,-13 65,-57 153,-99 249,-98 60,0 116,17 166,44 115,62 194,177 194,261z"/>
   <path class="fil13" d="M2440 2152l0 0c-26,1 -48,-19 -50,-45l-10 -195c-2,-27 19,-49 45,-51l0 0c27,-1 49,19 51,46l10 195c1,26 -19,49 -46,50z"/>
   <path class="fil13" d="M1513 2148l0 0c26,2 49,-18 51,-45l12 -195c1,-26 -19,-49 -45,-51l0 0c-27,-1 -49,19 -51,45l-12 195c-1,27 19,49 45,51z"/>
   <path class="fil14" d="M1804 901c-1,34 -28,61 -62,61 -33,0 -60,-28 -60,-61 0,-34 27,-61 61,-61 34,0 61,28 61,61z"/>
   <path class="fil14" d="M2161 903c-1,33 27,61 60,61 34,0 61,-27 61,-61 0,-33 -27,-61 -60,-61 -34,0 -61,27 -61,61z"/>
   <path class="fil15" d="M2081 1017c0,42 -45,75 -100,75 -54,0 -99,-34 -98,-76 0,-41 44,-130 99,-129 55,0 99,89 99,130z"/>
   <path class="fil14" d="M1981 1228c-72,-1 -127,-31 -127,-72 1,-10 9,-18 19,-18 10,0 18,8 18,18 0,14 35,35 90,35 54,1 90,-20 90,-34 1,-10 9,-18 19,-18 10,0 18,8 18,18 -1,41 -55,71 -127,71z"/>
   <path class="fil16" d="M2167 1069c0,23 19,43 43,43 23,0 43,-19 43,-43 0,-24 -19,-43 -43,-43 -24,0 -43,19 -43,43z"/>
   <path class="fil16" d="M1710 1067c0,23 19,43 43,43 24,0 43,-19 43,-43 0,-24 -19,-43 -43,-43 -24,0 -43,19 -43,43z"/>
   <path class="fil6" d="M2759 3244c0,79 -67,142 -150,142 -82,-1 -149,-65 -148,-143 0,-78 67,-141 150,-141 82,0 149,64 148,142z"/>
   <path class="fil6" d="M1504 3239c-1,78 -68,141 -150,141 -83,0 -149,-64 -149,-142 0,-79 67,-142 150,-142 82,1 149,65 149,143z"/>
   <path class="fil17" d="M2359 641l-13 35c0,0 -33,66 -124,48 -90,-19 -238,-224 -238,-224 0,0 -27,159 -80,108 -49,-46 -73,-88 -78,-95 5,12 42,110 -43,194 -68,67 -189,81 -245,83 48,-198 230,-345 446,-344 156,1 293,78 375,195z"/>
  </g>
 </g>
</svg>
