<?xml version="1.0" encoding="UTF-8"?>
<!DOCTYPE svg PUBLIC "-//W3C//DTD SVG 1.1//EN" "http://www.w3.org/Graphics/SVG/1.1/DTD/svg11.dtd">
<!-- Creator: CorelDRAW X8 -->
<svg xmlns="http://www.w3.org/2000/svg" xml:space="preserve" width="42.3332mm" height="42.3332mm" version="1.1" style="shape-rendering:geometricPrecision; text-rendering:geometricPrecision; image-rendering:optimizeQuality; fill-rule:evenodd; clip-rule:evenodd"
viewBox="0 0 4233 4233"
 xmlns:xlink="http://www.w3.org/1999/xlink">
 <defs>
  <style type="text/css">
   <![CDATA[
    .fil15 {fill:black;fill-rule:nonzero}
    .fil2 {fill:#15BFC8;fill-rule:nonzero}
    .fil6 {fill:#28D8E2;fill-rule:nonzero}
    .fil9 {fill:#333333;fill-rule:nonzero}
    .fil1 {fill:#75AC2A;fill-rule:nonzero}
    .fil5 {fill:#8CC63F;fill-rule:nonzero}
    .fil7 {fill:#999999;fill-rule:nonzero}
    .fil3 {fill:#B3B3B3;fill-rule:nonzero}
    .fil0 {fill:#CCCCCC;fill-rule:nonzero}
    .fil4 {fill:#E6E6E6;fill-rule:nonzero}
    .fil16 {fill:#999999;fill-rule:nonzero;fill-opacity:0.301961}
    .fil12 {fill:white;fill-rule:nonzero;fill-opacity:0.301961}
    .fil13 {fill:#28D8E2;fill-rule:nonzero;fill-opacity:0.501961}
    .fil8 {fill:#999999;fill-rule:nonzero;fill-opacity:0.501961}
    .fil14 {fill:#B3B3B3;fill-rule:nonzero;fill-opacity:0.501961}
    .fil10 {fill:#CCCCCC;fill-rule:nonzero;fill-opacity:0.501961}
    .fil11 {fill:#E6E6E6;fill-rule:nonzero;fill-opacity:0.501961}
   ]]>
  </style>
 </defs>
 <g id="Camada_x0020_1">
  <metadata id="CorelCorpID_0Corel-Layer"/>
  <path class="fil0" d="M4098 1205c-36,-44 -98,-58 -149,-72 -86,-24 -174,-38 -259,-65 -88,-28 -176,-57 -268,-60 -10,-9 -112,-45 -127,-37 -50,25 5,115 -27,160 -32,44 -56,94 -77,144 -1,3 -2,6 -3,9 -33,78 -44,163 -77,252 -1,3 -1,6 -2,9 -6,36 -16,72 -36,109 0,2 -1,3 -1,5 -20,55 -42,108 0,152 2,2 3,11 5,13 13,11 29,13 45,21 3,1 6,2 9,3 189,37 388,49 576,72 3,0 6,0 9,0 53,2 110,4 159,-18 107,-49 76,-171 40,-259 -19,-46 -50,-109 -13,-155 30,-37 75,-63 112,-93 52,-40 143,-118 84,-190z"/>
  <polygon class="fil1" points="3487,1300 3482,1294 3473,1293 3462,1300 3459,1306 3466,1310 3483,1306 "/>
  <path class="fil1" d="M3094 1705l5 -5 -9 -18 3 -5 6 -6 4 -7 -10 -5 -2 -8 11 -4 4 -5 -8 -6 3 -5 13 4 23 -1 11 -9 24 -13 7 -3 4 -22 0 0 0 0 11 -8 18 9 16 -4 21 -36 21 -12 7 -10 -11 -9 -2 -17 -27 -12 -7 -7 -12 -11 6 -17 -2 -16 -19 -9 -4 -23 -8 -9 -3 5 -19 -7 -2 -13 -9 -6c-14,52 -27,106 -47,161 -1,3 -1,6 -2,9 -6,36 -16,72 -36,109 0,2 -1,3 -1,5 -2,5 -4,11 -6,17l9 20 19 9z"/>
  <polygon class="fil1" points="3270,1256 3267,1261 3274,1263 3277,1259 3274,1254 "/>
  <path class="fil1" d="M3283 1266l6 2 4 -1 3 -4 5 2 3 -3 -4 -3 -3 -1 -4 4 -9 -4 -2 5 2 1c0,0 -1,1 -1,2z"/>
  <path class="fil1" d="M3206 1266l29 -11 25 -3 -1 -2 20 -7 4 4 1 4 8 -4 2 0 -6 -3 -5 -5 3 -5 4 -2 7 3 2 3 1 7 3 1 1 -1 0 1 11 3 3 -4 5 4 -2 5 -7 1 0 0 -2 6 11 9 4 4c0,0 0,0 0,0l5 2 3 -8 -7 -8 -4 -4 1 -4 6 0 7 1 5 -11 -4 -7 -4 -5 7 -19 -20 0 -6 -2 8 -14 -20 -15 -13 3 -9 21 -19 -2 -13 11 -8 -2 8 -18 -14 -9 -1 0c-16,29 -31,60 -44,91 0,1 0,1 0,1l10 -1 5 -9z"/>
  <polygon class="fil1" points="3502,1312 3501,1301 3504,1287 3493,1285 3488,1288 3486,1293 3489,1298 3494,1306 3492,1311 3484,1309 3478,1320 3488,1324 3500,1328 3510,1323 3504,1318 "/>
  <path class="fil1" d="M3567 1461l-11 -18 -16 -5 -5 9 -5 -2 -4 -6 -24 -20 8 -18 -37 -12 -13 1 -14 -7 -7 -3 -21 2 -8 17 -46 10 -2 12 7 3 -6 10 -6 -1 -12 27 15 47 13 6 2 -2 23 11 10 -4 13 6 4 11 19 11 -14 25 5 49 -22 17 -4 11 6 13 -11 25 4 21 -9 21 10 5c68,-35 125,-92 158,-167 13,-31 22,-62 26,-94l-1 0 -25 -11z"/>
  <path class="fil1" d="M3283 1161l-3 10 8 3 3 -5 8 3 1 -2 -3 -3 2 -5 10 3 8 -3 1 0 0 0 3 -1 21 6 6 12 -29 2 27 21 8 -9 3 1 11 5 8 -7 -8 -6 5 -11 -5 -6 -19 -21 -21 -6 -15 1 -5 15 -11 -7 1 -9 16 -6 -20 -10 -7 -1 -6 6 8 5 -5 7 -14 -5 -4 4 -4 -2c-5,7 -10,14 -14,21l19 -2 16 2z"/>
  <path class="fil1" d="M3276 1117l-2 1c-1,3 -2,6 -4,9l11 -4 -5 -6z"/>
  <path class="fil1" d="M3542 1287l-10 4 -2 8 7 5 0 13 15 0 -4 16 -4 -1 -10 -7 -13 -3 -18 11 -18 -4 -8 12 6 5 -6 8 -15 -10 -16 -3 -7 6 -5 19 7 8 15 6 10 4 6 -7 25 -13 9 6 14 -4 -1 8 17 27 -5 3 -11 -6 2 8 6 5 9 0 5 -10 4 0 -2 -4 -12 -17 1 -14 14 6 2 7 7 15 -5 12 7 19 12 -16 11 -1 -5 15 4 13 16 7c2,-56 -9,-110 -32,-160l-5 5 -17 -1z"/>
  <path class="fil2" d="M3409 1733l0 0 -10 -5 9 -21 -4 -21 11 -25 -6 -13 4 -11 22 -17 -5 -49 14 -25 -19 -11 -4 -11 -13 -6 -10 4 -23 -11 -2 2 -13 -6 -15 -47 12 -27 6 1 6 -10 -7 -3 2 -12 46 -10 8 -17 21 -2 7 3 14 7 13 -1 37 12 -8 18 24 20 4 6 5 2 5 -9 16 5 11 18 25 11 1 0 1 0c1,-10 2,-20 3,-29l-1 0 -16 -7 -4 -13 5 -15 -11 1 -12 16 -7 -19 5 -12 -7 -15 -2 -7 -14 -6 -1 14 12 17 2 4 -4 0 -5 10 -9 0 -6 -5 -2 -8 11 6 5 -3 -17 -27 1 -8 -14 4 -9 -6 -25 13 -6 7 -10 -4 -15 -6 -7 -8 5 -19 7 -6 16 3 15 10 6 -8 -6 -5 8 -12 18 4 18 -11 13 3 10 7 4 1 4 -16 -15 0 0 -13 -7 -5 2 -8 10 -4 17 1 5 -5 1 0c-34,-73 -93,-135 -172,-170 0,-1 0,-1 -1,-1 -37,-16 -75,-25 -113,-28 0,12 -1,24 -5,34l2 -1 5 6 -11 4c-1,1 -1,3 -2,4 -2,3 -4,6 -6,9l4 2 4 -4 14 5 5 -7 -8 -5 6 -6 7 1 20 10 -16 6 -1 9 11 7 5 -15 15 -1 21 6 19 21 5 6 -5 11 8 6 -8 7 -11 -5 -3 -1 -8 9 -27 -21 29 -2 -6 -12 -21 -6 -3 1 0 0 -1 0 -8 3 -10 -3 -2 5 3 3 -1 2 -8 -3 -3 5 -8 -3 3 -10 -16 -2 -19 2c-4,7 -9,15 -13,23l1 0 14 9 -8 18 8 2 13 -11 19 2 9 -21 13 -3 20 15 -8 14 6 2 20 0 -7 19 4 5 4 7 -5 11 -7 -1 -6 0 -1 4 4 4 7 8 -3 8 -5 -2c0,0 0,0 0,0l-4 -4 -11 -9 2 -6 0 0 7 -1 2 -5 -5 -4 -3 4 -11 -3 0 -1 -1 1 -3 -1 -1 -7 -2 -3 -7 -3 -4 2 -3 5 5 5 6 3 -2 0 -8 4 -1 -4 -4 -4 -20 7 1 2 -25 3 -29 11 -5 9 -10 1c-1,3 -2,6 -3,8 -13,30 -22,60 -30,91l9 6 2 13 19 7 3 -5 8 9 4 23 19 9 2 16 -6 17 12 11 7 7 27 12 2 17 11 9 -7 10 -21 12 -21 36 -16 4 -18 -9 -11 8 0 0 0 0 -4 22 -7 3 -24 13 -11 9 -23 1 -13 -4 -3 5 8 6 -4 5 -11 4 2 8 10 5 -4 7 -6 6 -3 5 9 18 -5 5 -19 -9 -9 -20c-4,10 -8,21 -11,32 18,13 38,24 59,33 0,0 1,0 1,1 98,43 206,36 294,-9zm57 -423l0 0 -7 -4 3 -6 11 -7 9 1 5 6 -4 6 -17 4zm34 18l0 0 -12 -4 -10 -4 6 -11 8 2 2 -5 -5 -8 -3 -5 2 -5 5 -3 11 2 -3 14 1 11 2 6 6 5 -10 5zm-226 -65l0 0 -7 -2 3 -5 4 -2 3 5 -3 4zm10 -5l0 0 9 4 4 -4 3 1 4 3 -3 3 -5 -2 -3 4 -4 1 -6 -2c0,-1 1,-2 1,-2l-2 -1 2 -5z"/>
  <path class="fil3" d="M3228 1587c-2,-7 -6,-12 -11,-16 -22,-16 -49,-5 -72,-2 -21,3 -43,2 -63,13 -18,9 -25,37 -28,67 -4,36 -10,75 -6,112 4,29 11,57 29,63 18,6 96,-52 111,-65l49 -123c5,-20 0,-39 -9,-49z"/>
  <path class="fil4" d="M3342 950c-13,-54 -48,-79 -99,-95 -83,-26 -169,-46 -254,-66 -176,-39 -196,-31 -376,-32 -31,-1 -44,28 -38,52 -13,58 -6,119 -10,178 -5,95 0,192 -7,287 -8,105 -119,301 -8,376l165 28c0,0 50,15 119,32 2,1 5,1 7,2 112,28 219,45 347,47 1,-2 45,-110 52,-143 1,-3 2,-7 3,-10 1,-4 2,-8 3,-13 17,-72 29,-146 46,-217 16,-72 27,-144 36,-217 8,-64 29,-144 14,-209z"/>
  <path class="fil5" d="M2924 1187c20,-44 47,-82 80,-112l-8 18 10 12 -11 24 3 27 10 6 4 -6 -3 -24 5 -19 7 3 -5 20 6 33 -8 6 4 22 24 19 2 -5 10 7 -4 7 8 5 11 10 10 30 23 12 -6 21 -22 4 -8 17 -7 10 10 40 -3 11c0,0 8,6 9,7 1,0 13,22 13,22l-24 54 6 5 -15 23 4 19 -13 24 4 32 11 24 19 9 4 -5 -9 -18 4 -5 5 -6 4 -7 -9 -5 -2 -8 11 -4 3 -5 -7 -6 3 -5 13 3 22 0 12 -9 24 -13 7 -3 4 -22 0 0 0 0 10 -8 18 9 17 -4 20 -37 21 -11 7 -10 -10 -9 -2 -17 -28 -12 -6 -7 -12 -12 6 -16 -2 -16 -20 -9 -3 -23 -8 -9 -3 5 -19 -7 -3 -13 -17 -12 -24 11 -24 -15 11 -29 -17 -11 14 -11 1 -9 -31 6 -15 -9 0 -14 9 -11 15 -12 24 -1 37 17 -5 11 10 12 8 -20 14 -5 25 -5 5 -8 28 -11 26 -3 -1 -2 19 -7 5 4 1 4 8 -4 1 0 -5 -3 -5 -5 2 -6 5 -1 6 3 3 3 0 7 4 1 0 -1 1 1 10 3 4 -4 5 3 -3 6 -6 1 0 0 -2 6 11 9 4 4c0,0 0,0 0,0l4 2 4 -8 -8 -8 -3 -4 0 -4 7 0 7 1 5 -11 -5 -7 -4 -6 8 -18 -20 0 -6 -2 7 -14 -20 -15 -12 3 -9 21 -19 -2 -13 11 -8 -2 8 -18 -15 -9 -5 -8 2 -13 35 -4 15 2 -2 9 8 3 2 -4 9 2 0 -1 -2 -3 1 -5 10 3 9 -3 0 -1 1 0 2 -1 22 7 6 12 -30 2 27 21 7 -7c2,-12 4,-25 5,-37l-8 -10 -22 -6 -14 1 -6 15 -11 -8 2 -8 16 -6 -20 -10 -7 -1 -6 6 7 5 -5 7 -13 -5 -5 4 -19 -8c0,0 4,-11 3,-12 -1,0 15,7 15,7l17 -6 -5 -6 -12 4 -13 -7 -4 -15 -18 -8 -24 6 17 7 -1 6 -6 2 18 9 0 8 -20 -10 1 -6 -12 -8 -6 -7 -15 -7c-104,22 -197,92 -243,197 -57,130 -28,277 64,374 -91,-98 -121,-244 -64,-374z"/>
  <polygon class="fil5" points="3255,1155 3253,1159 3260,1162 3262,1158 3260,1153 "/>
  <path class="fil5" d="M3269 1165l5 2 5 -1 3 -4 4 2 4 -3 -4 -3 -4 -1 -4 4 -9 -4 -2 5 2 0c0,0 0,2 0,3z"/>
  <path class="fil6" d="M3227 1664c29,-93 43,-194 65,-288 16,-72 27,-144 36,-217 2,-20 6,-42 10,-65l-7 7 -27 -21 30 -2 -6 -12 -22 -7 -2 1 -1 0 0 1 -9 3 -10 -3 -1 5 2 3 0 1 -9 -2 -2 4 -8 -3 2 -9 -15 -2 -35 4 -2 13 5 8 15 9 -8 18 8 2 13 -11 19 2 9 -21 12 -3 20 15 -7 14 6 2 20 0 -8 18 4 6 5 7 -5 11 -7 -1 -7 0 0 4 3 4 8 8 -4 8 -4 -2c0,0 0,0 0,0l-4 -4 -11 -9 2 -6 0 0 6 -1 3 -6 -5 -3 -4 4 -10 -3 -1 -1 0 1 -4 -1 0 -7 -3 -3 -6 -3 -5 1 -2 6 5 5 5 3 -1 0 -8 4 -1 -4 -5 -4 -19 7 1 2 -26 3 -28 11 -5 8 -25 5 -14 5 -8 20 -10 -12 5 -11 -37 -17 -24 1 -15 12 -9 11 0 14 15 9 31 -6 -1 9 -14 11 17 11 -11 29 24 15 24 -11 17 12 3 13 19 7 3 -5 8 9 3 23 20 9 2 16 -6 16 12 12 6 7 28 12 2 17 10 9 -7 10 -21 11 -20 37 -17 4 -18 -9 -10 8 0 0 0 0 -4 22 -7 3 -24 13 -12 9 -22 0 -13 -3 -3 5 7 6 -3 5 -11 4 2 8 9 5 -4 7 -5 6 -4 5 9 18 -4 5 -19 -9 -11 -24 -4 -32 13 -24 -4 -19 15 -23 -6 -5 24 -54c0,0 -12,-22 -13,-22 -1,-1 -9,-7 -9,-7l3 -11 -10 -40 7 -10 8 -17 22 -4 6 -21 -23 -12 -10 -30 -11 -10 -8 -5 4 -7 -10 -7 -2 5 -24 -19 -4 -22 8 -6 -6 -33 5 -20 -7 -3 -5 19 3 24 -4 6 -10 -6 -3 -27 11 -24 -10 -12 8 -18c-33,30 -60,68 -80,112 -57,130 -27,276 64,374 31,33 68,60 112,79 0,0 0,0 0,0 41,18 83,28 125,29 1,-1 1,-3 2,-5zm42 -507l0 0 9 4 4 -4 4 1 4 3 -4 3 -4 -2 -3 4 -5 1 -5 -2c0,-1 0,-3 0,-3l-2 0 2 -5zm-9 5l0 0 -7 -3 2 -4 5 -2 2 5 -2 4z"/>
  <path class="fil6" d="M3188 1004l12 8 -1 6 20 10 0 -8 -18 -9 6 -2 1 -6 -17 -7 24 -6 18 8 4 15 13 7 12 -4 5 6 -17 6c0,0 -16,-7 -15,-7 1,1 -3,12 -3,12l19 8 5 -4 13 5 5 -7 -7 -5 6 -6 7 1 20 10 -16 6 -2 8 11 8 6 -15 14 -1 22 6 8 10c3,-20 4,-39 4,-58 -60,-19 -122,-22 -181,-9l1 0 15 7 6 7z"/>
  <path class="fil3" d="M1563 2180c87,-46 178,-7 228,70 -9,-11 -7,-8 7,9 9,11 18,21 28,31 14,14 34,33 47,43 40,31 91,59 122,69 97,31 210,-16 305,-48 86,-30 183,43 202,125 22,97 -39,173 -126,203 -156,54 -312,86 -476,43 -166,-44 -314,-177 -406,-317 -50,-77 -6,-187 69,-228z"/>
  <path class="fil4" d="M2115 2620c-8,-72 -3,-142 4,-213 13,-2 25,-4 38,-7 12,110 36,219 76,323 -35,8 -69,14 -104,17 -5,-40 -10,-80 -14,-120z"/>
  <path class="fil4" d="M1946 2606c27,-66 61,-130 90,-196 16,2 32,2 48,1 -7,63 -12,126 -5,190 5,47 11,95 17,142 -59,4 -118,0 -179,-14 5,-42 12,-83 29,-123z"/>
  <path class="fil4" d="M1950 2382c16,9 32,16 45,20 2,1 4,1 7,2 -30,63 -64,126 -89,193 -15,41 -22,82 -27,124 -54,-16 -107,-42 -156,-74 55,-101 136,-184 220,-265z"/>
  <path class="fil4" d="M1563 2180c87,-46 178,-7 228,70 -9,-11 -7,-8 7,9 9,11 18,21 28,31 14,14 34,33 47,43 14,11 30,22 46,31 -83,81 -162,164 -217,263 -83,-60 -155,-138 -208,-219 -50,-77 -6,-187 69,-228z"/>
  <path class="fil4" d="M2266 2715c-41,-104 -64,-214 -76,-324 38,-12 75,-25 110,-37 86,-30 183,43 202,125 22,97 -39,173 -126,203 -37,12 -73,24 -110,33z"/>
  <path class="fil7" d="M2597 2472c7,-45 15,-113 -2,-158 -11,-28 -26,-39 -43,-54 -10,2 -21,6 -31,10 -31,13 -60,35 -92,49 9,-14 103,-61 17,-81 -92,-20 -147,93 -158,125 -10,32 -2,67 3,97 7,48 18,97 41,137 15,25 31,57 55,73 23,15 71,-16 92,-29 25,-14 51,-30 75,-47 12,-41 36,-78 43,-122z"/>
  <path class="fil8" d="M2595 2314c-11,-28 -26,-39 -43,-54 -10,2 -21,6 -31,10 -31,13 -60,35 -92,49 8,-13 93,-57 29,-77 0,5 -1,10 -3,15 -15,39 -53,59 -90,72 -19,7 -39,-2 -51,-18 -13,21 -22,41 -26,52 -10,32 -2,67 3,97 7,48 18,97 41,137 15,25 31,57 55,73 23,15 71,-16 92,-29 25,-14 51,-30 75,-47 12,-41 36,-78 43,-122 7,-45 15,-113 -2,-158z"/>
  <path class="fil0" d="M2302 2340c1,46 20,99 32,144 15,55 45,122 84,165 38,42 -26,102 -64,60 -41,-44 -70,-105 -90,-161 -24,-64 -49,-142 -50,-210 0,-57 87,-54 88,2z"/>
  <path class="fil0" d="M2418 2649c-4,-4 -7,-9 -11,-13 -13,10 -32,14 -51,3 -61,-34 -88,-96 -115,-157 7,23 15,45 23,66 20,56 49,117 90,161 38,42 102,-18 64,-60z"/>
  <path class="fil9" d="M1003 3929c0,-13 -1,-43 -18,-47 -34,-8 -75,4 -108,6 -47,4 -94,3 -140,2 -47,-1 -93,-2 -140,-2 -21,1 -42,1 -64,0 -21,0 -40,-7 -61,-8 -5,0 -7,3 -7,7 -3,0 -6,3 -6,7 0,12 2,137 45,102 5,-4 9,-7 9,-15 -3,-8 1,-11 12,-9 9,1 4,9 5,14 4,20 25,25 43,23 3,0 6,-2 7,-5 3,-14 3,-21 22,-19 18,3 7,12 11,23 6,18 26,15 43,19 4,0 7,-2 8,-6 5,-11 8,-22 23,-21 6,0 13,22 18,27 7,8 39,9 47,4 4,-3 5,-5 6,-10 2,-13 28,-20 28,-19 0,14 -1,29 15,32 10,2 34,1 42,-6 10,-9 24,-59 25,-24 1,27 54,12 54,-14 0,-41 15,-5 25,-1 15,5 34,-3 48,-10 13,-7 8,-39 8,-50z"/>
  <path class="fil3" d="M1198 2943c-43,-73 -156,-114 -230,-60 -123,88 -196,201 -251,340 -26,65 -41,134 -51,203 -6,41 -11,82 -15,123 -1,13 -2,25 -3,38 0,2 0,3 0,5 -50,128 89,300 241,211 124,-73 91,-242 115,-364 18,-92 56,-210 133,-266 75,-53 110,-145 61,-230z"/>
  <path class="fil4" d="M889 3469c-39,-5 -76,-11 -112,-26 -37,-15 -69,-37 -106,-48 -2,11 -4,21 -5,31 -6,41 -11,82 -15,123 -1,13 -2,25 -3,38 0,2 0,3 0,5 -50,128 89,300 241,211 110,-65 96,-205 109,-321 -43,-3 -86,-11 -109,-13z"/>
  <path class="fil4" d="M699 3273c-9,30 -16,59 -22,90 52,15 95,49 149,61 44,10 87,11 132,15 8,0 26,3 45,5 0,-2 1,-4 1,-5 3,-14 6,-29 10,-43 -115,-5 -220,-54 -315,-123z"/>
  <path class="fil4" d="M908 3244c-52,-36 -100,-76 -148,-117 -16,31 -30,63 -43,96 -3,5 -4,11 -6,17 94,69 197,118 312,122 5,-18 12,-36 19,-53 -45,-22 -94,-37 -134,-65z"/>
  <path class="fil4" d="M1198 2943c-43,-73 -156,-114 -230,-60 -84,60 -144,131 -191,214 62,54 125,113 200,148 25,12 52,22 78,34 20,-42 47,-80 82,-106 75,-53 110,-145 61,-230z"/>
  <path class="fil0" d="M1011 3503c0,-5 -4,-7 -8,-7 -15,-3 -31,2 -46,5 -31,6 -63,4 -94,3 -39,-1 -75,-5 -113,-16 -33,-9 -58,-28 -88,-41 -6,-3 -12,3 -11,8 -13,74 -15,149 -15,224 -69,-18 -127,24 -155,89 -18,43 -25,88 -22,134 1,30 10,39 40,43 109,15 212,45 323,34 43,-4 83,-17 120,-37 10,-5 25,-11 39,-19 1,0 3,-1 4,-2 6,-6 10,-12 13,-18 0,-1 0,-2 1,-2 0,-68 0,-141 8,-213 0,-1 0,-2 0,-2 2,-61 4,-122 4,-183z"/>
  <path class="fil10" d="M995 3593c-20,23 -34,54 -41,83 -12,55 -17,122 -59,164 -43,42 -94,55 -152,58 -72,4 -146,23 -218,23 -26,0 -48,-7 -66,-18 2,30 10,38 40,42 109,15 212,45 323,34 43,-4 83,-17 120,-37 10,-5 25,-11 39,-19 1,0 3,-1 4,-2 6,-6 10,-12 13,-18 0,-1 0,-2 1,-2 0,-68 0,-141 8,-213l0 -2c1,-34 2,-68 3,-101 -5,0 -10,3 -15,8z"/>
  <path class="fil9" d="M1559 3979c14,7 32,15 48,10 10,-4 25,-40 25,1 0,26 53,41 54,14 0,-35 15,15 24,24 9,7 33,8 43,6 16,-3 15,-18 15,-32 0,-1 25,6 27,19 1,5 3,7 7,10 8,5 40,4 47,-4 5,-5 12,-27 17,-27 15,-1 19,10 23,21 2,4 5,6 9,6 17,-4 36,-1 43,-19 4,-11 -7,-20 11,-23 19,-2 19,5 22,19 1,3 4,5 7,5 18,2 39,-3 43,-23 1,-5 -4,-13 5,-14 10,-2 14,1 12,9 0,8 3,11 9,15 43,35 44,-90 45,-102 0,-4 -3,-7 -6,-7 0,-4 -2,-7 -7,-7 -21,1 -41,8 -61,8 -22,1 -43,1 -64,0 -47,0 -93,1 -140,2 -47,1 -93,2 -140,-2 -34,-2 -75,-14 -108,-6 -17,4 -18,34 -18,47 0,11 -5,43 8,50z"/>
  <path class="fil3" d="M1356 2943c43,-73 156,-114 230,-60 123,88 196,201 251,340 26,65 41,134 51,203 6,41 11,82 15,123 1,13 2,25 3,38 0,2 0,3 0,5 50,128 -90,300 -241,211 -124,-73 -91,-242 -115,-364 -18,-92 -56,-210 -134,-266 -74,-53 -110,-145 -60,-230z"/>
  <path class="fil4" d="M1665 3469c39,-5 76,-11 112,-26 37,-15 69,-37 106,-48 2,11 3,21 5,31 6,41 11,82 15,123 1,13 2,25 3,38 0,2 0,3 0,5 50,128 -90,300 -241,211 -110,-65 -96,-205 -109,-321 42,-3 86,-11 109,-13z"/>
  <path class="fil4" d="M1855 3273c9,30 16,59 22,90 -52,15 -95,49 -149,61 -44,10 -88,11 -132,15 -8,0 -26,3 -45,5 0,-2 -1,-4 -1,-5 -3,-14 -6,-29 -10,-43 115,-5 220,-54 315,-123z"/>
  <path class="fil4" d="M1646 3244c52,-36 100,-76 148,-117 16,31 30,63 43,96 2,5 4,11 6,17 -94,69 -197,118 -312,122 -6,-18 -12,-36 -19,-53 45,-22 94,-37 134,-65z"/>
  <path class="fil4" d="M1356 2943c43,-73 156,-114 230,-60 84,60 144,131 191,214 -62,54 -126,113 -200,148 -25,12 -52,22 -78,34 -21,-42 -47,-80 -83,-106 -74,-53 -110,-145 -60,-230z"/>
  <path class="fil0" d="M1547 3686c0,0 0,1 0,2 8,72 8,145 8,213 0,0 1,1 1,2 3,6 7,12 13,18 1,1 3,2 4,2 13,8 29,14 39,19 37,20 77,33 120,37 111,11 214,-19 323,-34 30,-4 38,-13 40,-43 3,-46 -4,-91 -22,-134 -28,-65 -87,-107 -155,-89 -1,-75 -3,-150 -15,-224 1,-5 -5,-11 -11,-8 -31,13 -55,32 -88,41 -38,11 -74,15 -113,16 -32,1 -63,3 -95,-3 -14,-3 -31,-8 -46,-5 -3,0 -7,2 -7,7 0,61 2,122 4,183z"/>
  <path class="fil10" d="M2087 3811c-72,108 -263,105 -361,39 -61,-40 -98,-96 -101,-171 -2,-32 8,-79 -11,-108 0,-1 0,-1 0,-1 -22,-24 -37,-25 -60,-18 -3,3 -7,5 -10,7 1,42 2,84 3,127l0 2c8,72 8,145 8,213 0,0 1,1 1,2 3,6 7,12 13,18 1,1 3,2 4,2 13,8 29,14 39,19 37,20 77,33 120,37 111,11 214,-19 323,-34 30,-4 38,-13 40,-43 2,-31 -1,-62 -8,-91z"/>
  <path class="fil3" d="M1093 2403c-26,-95 -117,-134 -207,-118 14,-1 10,0 -12,1 -14,1 -27,2 -41,1 -20,0 -48,-2 -63,-4 -51,-8 -106,-26 -134,-41 -90,-49 -134,-164 -175,-255 -38,-84 -157,-103 -230,-60 -85,49 -98,146 -61,230 69,150 153,286 296,375 145,91 345,107 509,78 91,-16 140,-125 118,-207z"/>
  <path class="fil4" d="M395 2304c57,-44 105,-95 151,-149 -7,-10 -14,-21 -20,-33 -89,67 -184,125 -287,168 18,30 37,59 58,87 33,-24 66,-48 98,-73z"/>
  <path class="fil4" d="M521 2418c29,-66 53,-134 80,-201 -12,-10 -23,-21 -34,-34 -41,49 -83,96 -133,134 -38,29 -77,57 -116,86 38,45 82,85 133,120 27,-33 52,-66 70,-105z"/>
  <path class="fil4" d="M681 2261c-18,-6 -34,-13 -45,-19 -2,-2 -4,-3 -7,-4 -25,66 -47,133 -79,197 -19,39 -45,72 -71,105 49,28 103,49 161,62 35,-109 39,-225 41,-341z"/>
  <path class="fil4" d="M1093 2403c-26,-95 -117,-134 -207,-118 14,-1 10,0 -12,1 -14,1 -27,2 -41,1 -20,0 -48,-2 -63,-4 -19,-3 -37,-7 -55,-12 -2,116 -8,230 -42,338 101,19 207,18 302,1 91,-16 140,-125 118,-207z"/>
  <path class="fil4" d="M222 2260c103,-42 199,-101 287,-168 -17,-35 -33,-72 -48,-105 -38,-84 -157,-103 -230,-60 -85,49 -98,146 -61,230 16,35 33,70 52,103z"/>
  <path class="fil0" d="M1277 1650c-283,0 -520,236 -520,519l0 620c0,283 237,520 520,520 283,0 519,-237 519,-520l0 -620c0,-283 -236,-519 -519,-519z"/>
  <path class="fil10" d="M858 2162c83,9 164,13 248,11 65,-1 128,-5 193,-11 139,-12 258,26 366,117 85,72 124,170 131,274l0 -384c0,-283 -236,-519 -519,-519 -280,0 -514,231 -519,510 33,-1 67,-1 100,2z"/>
  <path class="fil10" d="M1633 3033c-162,192 -432,187 -651,122 -45,-13 -87,-34 -124,-62 95,130 249,216 419,216 283,0 519,-237 519,-520l0 -160c-10,149 -76,302 -163,404z"/>
  <path class="fil4" d="M1768 2059c7,-46 10,-93 10,-141 -1,-51 -8,-101 -8,-151 -4,-267 -220,-490 -491,-490 -231,0 -436,171 -481,393 -11,39 -16,80 -16,123 -1,89 -4,177 -4,266l990 0z"/>
  <path class="fil11" d="M1770 1767c-2,-114 -43,-220 -109,-304 1,2 2,4 3,6 87,198 -156,280 -303,332 -183,64 -392,103 -580,47 -1,70 -3,141 -3,211l990 0c7,-46 10,-93 10,-141 -1,-51 -8,-101 -8,-151z"/>
  <path class="fil6" d="M1689 1998c4,-87 0,-175 -6,-261 -5,-74 -17,-150 -54,-215 -13,-23 -28,-53 -51,-67 -32,-19 -72,-24 -107,-29 -41,-6 -82,-9 -123,-9 -23,0 -46,-1 -69,0 -23,-1 -46,0 -68,0 -42,0 -82,3 -123,9 -36,5 -75,10 -107,29 -24,14 -38,44 -51,67 -38,65 -50,141 -55,215 -6,86 -9,174 -5,261l819 0z"/>
  <path class="fil12" d="M1002 1878c2,-69 7,-138 23,-206 15,-64 30,-131 56,-192 7,-18 14,-37 22,-56 -5,0 -10,1 -15,2 -11,1 -22,3 -33,5 -57,85 -88,195 -103,291 -12,70 -18,142 -10,213 2,20 5,41 8,63l61 0c-5,-40 -11,-79 -9,-120z"/>
  <path class="fil12" d="M1168 1418c-7,1 -15,1 -22,1 -22,38 -36,88 -46,121 -19,63 -38,127 -47,192 -11,71 -17,145 -13,217 1,16 3,33 6,49l33 0c-32,-195 -1,-403 89,-580z"/>
  <path class="fil13" d="M1260 1454c117,-9 244,-10 345,58 11,8 22,17 32,26 -3,-5 -5,-11 -8,-16 -13,-23 -28,-53 -51,-67 -32,-19 -72,-24 -107,-29 -41,-6 -82,-9 -123,-9 -23,0 -46,-1 -69,0 -23,-1 -46,0 -68,0 -42,0 -82,3 -123,9 -36,5 -75,10 -107,29 -24,14 -38,44 -51,67 -6,9 -10,19 -14,28 91,-92 223,-87 344,-96z"/>
  <path class="fil3" d="M1763 1979l-983 0c-103,0 -103,161 0,161l983 0c104,0 104,-161 0,-161z"/>
  <path class="fil14" d="M1618 2105c-96,0 -192,-6 -289,-9 -121,-4 -241,-6 -362,-5 -48,0 -95,0 -142,-10 -32,-7 -99,-21 -117,9 10,28 34,50 72,50l983 0c65,0 90,-64 73,-111 -67,50 -132,76 -218,76z"/>
  <path class="fil7" d="M462 1750c-42,-19 -54,35 -59,70 -2,14 -2,33 -6,49 -11,-33 -15,-69 -27,-101 -15,-37 -39,-66 -71,-85 -50,-29 -120,-23 -155,31 -40,63 -42,149 -36,223 4,40 12,79 21,117 5,24 15,80 42,87 29,6 63,-4 91,-10 45,-11 89,-36 128,-64 25,-18 56,-36 72,-65 16,-30 17,-74 23,-108 9,-41 24,-123 -23,-144z"/>
  <path class="fil8" d="M482 1881c-36,72 -148,159 -234,130 -41,-13 -69,-36 -86,-76 -8,-18 -12,-38 -13,-58 -1,-12 -2,-23 -2,-35 -2,-4 -4,-8 -7,-11 -5,-5 -13,-15 -21,-10 -1,0 -2,0 -2,0 -3,2 -6,4 -9,6 -4,37 -3,75 0,110 4,40 12,79 21,117 5,24 15,80 42,87 29,6 63,-4 91,-10 45,-11 89,-36 128,-64 25,-18 56,-36 72,-65 16,-30 17,-74 23,-108 2,-9 5,-21 6,-34 -3,8 -6,15 -9,21z"/>
  <path class="fil0" d="M469 1976c-34,31 -86,53 -126,75 -50,27 -120,52 -177,53 -57,1 -57,89 0,88 60,-1 124,-22 179,-45 62,-27 136,-63 186,-109 42,-38 -20,-100 -62,-62z"/>
  <path class="fil10" d="M466 2044c-21,12 -41,25 -62,36 -31,17 -63,33 -97,44 -61,20 -121,39 -184,25 0,22 14,43 43,43 60,-1 124,-22 179,-45 56,-25 122,-56 172,-97 -6,-17 -28,-21 -51,-6z"/>
  <path class="fil15" d="M2623 782c-1,-57 -89,-57 -87,0 6,269 -25,538 -43,807 -18,287 -32,573 -71,858 -37,270 -92,537 -131,806 -22,144 -41,288 -62,431 -18,128 -52,261 -45,391 4,56 91,56 88,0 -7,-131 28,-267 46,-396 21,-144 40,-287 61,-430 41,-274 97,-544 133,-818 36,-270 52,-542 67,-815 17,-278 51,-555 44,-834z"/>
  <path class="fil7" d="M2646 2289c-26,-58 -94,-57 -148,-28 -32,6 -64,20 -82,41 -40,46 -40,108 -45,166 -3,46 -9,123 42,150 53,27 124,29 177,2 99,-51 94,-246 56,-331z"/>
  <path class="fil16" d="M2671 2435c-25,73 -86,139 -170,137 -30,-1 -72,-7 -98,-25 -14,-9 -25,-19 -34,-30 0,40 8,82 44,101 53,27 124,29 177,2 58,-30 80,-109 81,-186 0,0 0,0 0,1z"/>
  <path class="fil4" d="M1719 2419c2,-120 -74,-153 -174,-158 -2,0 -4,0 -6,0 -212,13 -417,-42 -628,36 -3,2 -5,4 -8,6 -16,12 -30,27 -39,46 -1,3 -2,5 -3,7 -11,38 -14,77 -13,116 0,2 0,5 0,7 -2,17 -3,34 -3,50 0,3 0,5 -1,7 4,121 -10,231 30,360 2,2 3,3 4,5 7,11 17,22 29,32 64,51 154,63 232,72 124,15 249,13 372,-7 16,-3 38,-5 62,-10 4,0 8,-1 12,-2 86,-11 112,-64 117,-132 0,-2 0,-5 0,-7 5,-22 7,-44 8,-65 0,-2 0,-5 0,-7 0,-34 0,-70 0,-108 0,-2 0,-5 0,-7 0,-33 0,-69 1,-105 0,-2 0,-4 0,-7 -1,-38 -1,-75 7,-112 0,-3 1,-6 2,-9 0,-3 -1,-5 -1,-8z"/>
  <path class="fil11" d="M1706 2704c-48,113 -162,171 -267,214 -57,24 -136,27 -199,20 -73,-7 -142,-18 -212,-38 -69,-20 -129,-57 -176,-106 5,33 11,66 22,102 2,2 3,3 4,5 7,11 17,22 29,32 64,51 154,63 232,72 124,15 249,13 372,-7 16,-3 38,-5 62,-10 4,0 8,-1 12,-2 86,-11 112,-64 117,-132 0,-2 0,-5 0,-7 5,-22 7,-44 8,-65 0,-2 0,-5 0,-7 0,-25 0,-52 0,-79 -1,3 -3,5 -4,8z"/>
  <path class="fil3" d="M1642 2485c2,-99 -61,-127 -144,-130 -2,0 -3,0 -5,0 -174,10 -343,-35 -516,29 -2,1 -5,3 -7,5 -13,10 -24,23 -32,38 -1,2 -1,4 -2,6 -9,31 -12,63 -11,95 0,2 0,4 0,6 -1,14 -2,28 -3,41 0,2 0,4 0,6 3,100 -9,190 25,296 1,1 1,3 2,4 6,10 14,18 24,26 53,42 127,52 192,60 102,12 204,10 306,-6 12,-2 31,-4 51,-8 3,0 6,-1 10,-2 70,-9 92,-53 95,-109 1,-2 1,-4 1,-6 3,-18 5,-35 6,-53 0,-2 0,-4 0,-6 0,-27 0,-57 0,-88 0,-2 0,-4 0,-6 0,-28 0,-57 1,-86 0,-2 0,-4 0,-6 -1,-31 -1,-62 5,-92 1,-3 2,-6 2,-8 0,-2 0,-4 0,-6z"/>
  <path class="fil14" d="M1519 2861c-73,36 -157,67 -240,58 -70,-8 -137,-15 -203,-41 -55,-15 -104,-41 -147,-77 4,25 9,50 18,76 1,1 1,3 2,4 6,10 14,18 24,26 53,42 127,52 192,60 102,12 204,10 306,-6 12,-2 31,-4 51,-8 3,0 6,-1 10,-2 70,-9 92,-53 95,-109 1,-2 1,-4 1,-6 3,-18 5,-35 6,-53 0,-2 0,-4 0,-6 0,-4 0,-8 0,-13 -31,40 -69,74 -115,97z"/>
  <path class="fil4" d="M1122 2444c-18,-14 -40,-18 -60,-15 -1,0 -3,0 -4,0 -2,1 -4,1 -7,2 -1,0 -2,1 -4,1 -11,4 -21,9 -30,17 -30,24 -36,73 -14,104 26,38 74,46 109,17 2,-2 3,-3 5,-4 6,-3 11,-7 16,-12 37,-32 25,-83 -11,-110z"/>
  <path class="fil11" d="M1141 2464c-4,46 -36,89 -96,89 -19,0 -35,-5 -49,-12 2,4 4,8 7,12 26,38 74,46 109,17 2,-2 3,-3 5,-4 6,-3 11,-7 16,-12 30,-26 28,-63 8,-90z"/>
  <path class="fil4" d="M1343 2458c-8,-10 -20,-19 -34,-24 -3,-1 -6,-2 -9,-2 -23,-9 -46,-5 -65,11 -15,13 -19,33 -19,52 -1,9 -1,17 1,26 4,22 21,44 41,53 16,7 32,8 47,4 27,-3 53,-22 59,-51 5,-25 -4,-50 -21,-69z"/>
  <path class="fil11" d="M1356 2476c-9,41 -40,77 -94,77 -12,0 -24,-2 -34,-5 8,11 19,20 30,26 16,7 32,8 47,4 27,-3 53,-22 59,-51 3,-18 0,-36 -8,-51z"/>
  <path class="fil4" d="M1578 2495c5,-17 -2,-38 -18,-47 -9,-5 -18,-7 -26,-8 -7,-4 -13,-7 -20,-8 -18,-5 -34,-2 -49,7 -12,5 -23,11 -30,20 -18,22 -20,49 -6,74 19,34 67,57 106,46 29,-8 45,-36 45,-65 0,-7 -1,-13 -2,-19z"/>
  <path class="fil11" d="M1578 2495c3,-9 2,-19 -2,-28 -7,47 -49,84 -97,84l-3 0c-15,0 -29,-4 -42,-10 22,29 65,48 101,38 29,-8 45,-36 45,-65 0,-7 -1,-13 -2,-19z"/>
  <path class="fil4" d="M1584 2673c-26,-26 -80,-21 -112,-19 -93,4 -187,5 -281,4 -64,-12 -128,-17 -193,-7 -17,2 -32,23 -31,40 4,48 11,96 21,143 2,13 16,27 28,29 136,19 267,28 404,26 37,0 95,12 128,-8 40,-25 38,-56 44,-100 5,-32 18,-81 -8,-108z"/>
  <path class="fil11" d="M1353 2858c-117,-1 -238,-6 -348,-50 -8,-3 -16,-7 -24,-11 2,12 4,25 7,37 2,13 16,27 28,29 136,19 267,28 404,26 37,0 95,12 128,-8 33,-21 38,-45 42,-77 -67,45 -149,55 -237,54z"/>
 </g>
</svg>
