<?xml version="1.0" encoding="UTF-8"?>
<!DOCTYPE svg PUBLIC "-//W3C//DTD SVG 1.1//EN" "http://www.w3.org/Graphics/SVG/1.1/DTD/svg11.dtd">
<!-- Creator: CorelDRAW X8 -->
<svg xmlns="http://www.w3.org/2000/svg" xml:space="preserve" width="25.4mm" height="25.4mm" version="1.1" style="shape-rendering:geometricPrecision; text-rendering:geometricPrecision; image-rendering:optimizeQuality; fill-rule:evenodd; clip-rule:evenodd"
viewBox="0 0 2540 2540"
 xmlns:xlink="http://www.w3.org/1999/xlink">
 <defs>
  <style type="text/css">
   <![CDATA[
    .fil1 {fill:#758189}
    .fil0 {fill:#BDC3C7}
    .fil2 {fill:#ECF0F1}
   ]]>
  </style>
 </defs>
 <g id="Camada_x0020_1">
  <metadata id="CorelCorpID_0Corel-Layer"/>
  <path class="fil0" d="M2538 2086l0 169c-212,0 -504,-189 -813,-189 -181,0 -295,75 -364,150l-91 0 -113 -526 1381 396z"/>
  <path class="fil0" d="M1270 1690l0 526 -91 0c-69,-75 -183,-150 -364,-150 -309,0 -601,189 -813,189l0 -169 1268 -396z"/>
  <path class="fil1" d="M2538 383l0 1703c-212,0 -504,-189 -813,-189 -181,0 -295,74 -364,149l-91 0 -225 -776 225 -776c0,0 92,-300 455,-300 309,0 601,189 813,189z"/>
  <path class="fil2" d="M1270 494l0 1552 -91 0c-69,-75 -183,-149 -364,-149 -309,0 -601,189 -813,189l0 -1703c212,0 504,-189 813,-189 363,0 455,300 455,300z"/>
 </g>
</svg>
