<?xml version="1.0" encoding="UTF-8"?>
<!DOCTYPE svg PUBLIC "-//W3C//DTD SVG 1.1//EN" "http://www.w3.org/Graphics/SVG/1.1/DTD/svg11.dtd">
<!-- Creator: CorelDRAW X8 -->
<svg xmlns="http://www.w3.org/2000/svg" xml:space="preserve" width="25.4mm" height="25.4mm" version="1.1" style="shape-rendering:geometricPrecision; text-rendering:geometricPrecision; image-rendering:optimizeQuality; fill-rule:evenodd; clip-rule:evenodd"
viewBox="0 0 2540 2540"
 xmlns:xlink="http://www.w3.org/1999/xlink">
 <defs>
  <style type="text/css">
   <![CDATA[
    .fil1 {fill:#2ECC71}
    .fil0 {fill:#3498DB}
    .fil2 {fill:#253744;fill-opacity:0.600000}
   ]]>
  </style>
 </defs>
 <g id="Camada_x0020_1">
  <metadata id="CorelCorpID_0Corel-Layer"/>
  <g id="_840631488">
  </g>
  <g id="_840638656">
  </g>
  <g id="_840649472">
  </g>
  <g id="_840672736">
  </g>
  <g id="_840677120">
  </g>
  <g id="_840613280">
  </g>
  <g id="_840658304">
  </g>
  <g id="_840636960">
  </g>
  <g id="_840653696">
  </g>
  <g id="_840621984">
  </g>
  <g id="_840643488">
  </g>
  <g id="_840664544">
  </g>
  <g id="_840644800">
  </g>
  <g id="_840668416">
  </g>
  <g id="_840623648">
  </g>
  <g id="_840672672">
   <circle class="fil0" cx="1270" cy="1270" r="1270"/>
   <path class="fil1" d="M2540 1270c0,-255 -75,-492 -204,-691 0,0 -73,106 -59,174 14,68 93,73 85,123 -8,50 -67,-14 -139,117 -73,132 -37,313 68,327 104,13 249,-50 249,-50z"/>
   <path class="fil1" d="M1604 44c147,40 284,107 406,193 0,0 -148,-24 -203,26 -56,50 -138,168 -203,0 -66,-168 0,-219 0,-219z"/>
   <path class="fil1" d="M315 433c233,-266 574,-433 955,-433 0,0 -86,52 77,141 163,88 89,129 55,156 -34,27 -93,-54 -132,-109 -39,-54 -204,-138 -331,-93 -127,46 -236,79 -218,121 18,43 236,-39 318,-35 81,5 54,55 -23,114 -77,59 -86,131 -5,177 82,45 182,50 205,22 22,-27 -41,-204 113,-127 154,78 281,123 154,236 -127,114 -272,241 -276,313 -5,73 45,132 18,136 -28,5 -52,-29 -71,-54 -18,-25 -102,-34 -142,-18 -41,16 -118,77 -75,136 43,59 102,32 161,59 59,27 114,131 102,154 -11,23 -61,-6 -102,-86 -41,-80 -119,-27 -173,-41 -54,-14 -95,-23 -149,-118 -55,-95 -167,-122 -214,-177 -131,-157 -122,-277 -149,-331 -27,-54 -98,-143 -98,-143z"/>
   <path class="fil1" d="M1392 1288c0,0 137,14 205,73 68,59 77,81 181,104 104,23 150,82 82,195 -68,113 -191,295 -250,349 -59,55 -131,100 -159,191 -27,91 -36,145 23,181 0,0 -32,77 -104,-22 -73,-100 -14,-218 0,-286 13,-68 50,-272 27,-322 -23,-50 -127,-82 -154,-186 -27,-104 20,-307 149,-277z"/>
   <path class="fil2" d="M373 381c496,-496 1300,-496 1796,0 496,496 496,1300 0,1796 0,0 576,-762 -240,-1578 -815,-815 -1556,-218 -1556,-218z"/>
  </g>
  <g id="_840642304">
  </g>
  <g id="_840630592">
  </g>
  <g id="_840640608">
  </g>
  <g id="_840655264">
  </g>
  <g id="_840655072">
  </g>
  <g id="_840673664">
  </g>
  <g id="_840616608">
  </g>
  <g id="_840676352">
  </g>
  <g id="_840675488">
  </g>
  <g id="_840652800">
  </g>
  <g id="_840646976">
  </g>
  <g id="_840675328">
  </g>
  <g id="_840672704">
  </g>
  <g id="_840648768">
  </g>
  <g id="_840674176">
  </g>
 </g>
</svg>
