<?xml version="1.0" encoding="UTF-8"?>
<!DOCTYPE svg PUBLIC "-//W3C//DTD SVG 1.1//EN" "http://www.w3.org/Graphics/SVG/1.1/DTD/svg11.dtd">
<!-- Creator: CorelDRAW X8 -->
<svg xmlns="http://www.w3.org/2000/svg" xml:space="preserve" width="25.4mm" height="25.4mm" version="1.1" style="shape-rendering:geometricPrecision; text-rendering:geometricPrecision; image-rendering:optimizeQuality; fill-rule:evenodd; clip-rule:evenodd"
viewBox="0 0 2540 2540"
 xmlns:xlink="http://www.w3.org/1999/xlink">
 <defs>
  <style type="text/css">
   <![CDATA[
    .fil2 {fill:#758189}
    .fil0 {fill:#B0B6BB}
    .fil1 {fill:#E8EDEE}
   ]]>
  </style>
 </defs>
 <g id="Camada_x0020_1">
  <metadata id="CorelCorpID_0Corel-Layer"/>
  <g id="_840652768">
   <path class="fil0" d="M1048 1739c-189,197 -394,305 -460,242 -65,-63 34,-273 223,-469 188,-196 394,-305 459,-242 65,63 -34,273 -222,469z"/>
   <path class="fil1" d="M1856 1529c103,-108 188,-208 253,-290 132,-166 239,-352 307,-553 143,-428 28,-641 28,-641 0,0 -218,-105 -639,56 -198,75 -379,190 -539,329 -80,69 -176,158 -279,265 0,0 -455,465 -450,707 0,0 -20,140 111,317 41,-66 96,-137 163,-207 188,-196 394,-305 459,-242 65,63 -34,273 -222,469 -67,70 -136,128 -200,172 182,123 322,97 322,97 241,-6 686,-479 686,-479z"/>
   <path class="fil0" d="M1705 1687l-18 6c-151,137 -371,311 -517,315 0,0 -2,0 -4,0 -1,0 -1,0 -1,0 -3,1 -7,1 -11,1 -1,0 -1,0 -2,0l85 432c9,45 65,61 96,28l153 -159c298,-311 219,-623 219,-623z"/>
   <path class="fil0" d="M537 1407c0,-1 0,-1 0,-2 0,-2 0,-3 0,-3 -3,-146 162,-374 293,-531l5 -18c0,0 -315,-65 -614,246l-152 159c-32,33 -13,87 32,94l435 68c0,-1 0,-2 0,-3 0,-4 1,-8 1,-10z"/>
   <path class="fil2" d="M864 1974c0,0 2,-28 -10,-67 -119,82 -223,115 -266,74 -43,-41 -14,-146 63,-268 -20,-5 -42,-8 -67,-8 -133,3 -242,101 -265,231l-71 401 396 -88c129,-29 223,-142 220,-275z"/>
   <path class="fil0" d="M1963 1100c-146,153 -389,158 -542,12 -152,-146 -157,-389 -11,-542 146,-152 389,-158 542,-11 152,146 158,389 11,541z"/>
   <path class="fil1" d="M1805 949c-63,65 -167,68 -232,5 -66,-63 -68,-167 -5,-232 63,-66 167,-68 232,-5 66,63 68,167 5,232z"/>
   <path class="fil2" d="M2103 401c103,98 226,156 346,172 89,-352 -5,-528 -5,-528 0,0 -180,-86 -527,18 20,119 84,239 186,338z"/>
  </g>
 </g>
</svg>
