<?xml version="1.0" encoding="UTF-8"?>
<!DOCTYPE svg PUBLIC "-//W3C//DTD SVG 1.1//EN" "http://www.w3.org/Graphics/SVG/1.1/DTD/svg11.dtd">
<!-- Creator: CorelDRAW X8 -->
<svg xmlns="http://www.w3.org/2000/svg" xml:space="preserve" width="25.4mm" height="25.4mm" version="1.1" style="shape-rendering:geometricPrecision; text-rendering:geometricPrecision; image-rendering:optimizeQuality; fill-rule:evenodd; clip-rule:evenodd"
viewBox="0 0 2540 2540"
 xmlns:xlink="http://www.w3.org/1999/xlink">
 <defs>
  <style type="text/css">
   <![CDATA[
    .fil3 {fill:#3498DB}
    .fil0 {fill:#E74C3C}
    .fil1 {fill:#E8EDEE}
    .fil2 {fill:#F3D55B}
   ]]>
  </style>
 </defs>
 <g id="Camada_x0020_1">
  <metadata id="CorelCorpID_0Corel-Layer"/>
  <path class="fil0" d="M1047 1739c-189,196 -395,303 -460,240 -66,-63 34,-272 223,-468 189,-196 395,-304 460,-241 65,63 -35,273 -223,469z"/>
  <path class="fil1" d="M1855 1530c104,-108 189,-207 254,-289 133,-166 240,-351 308,-552 144,-427 30,-641 30,-641 0,0 -218,-106 -639,54 -199,75 -379,190 -540,328 -80,69 -176,157 -280,265 0,0 -455,463 -451,705 0,0 -21,140 110,317 41,-66 96,-137 163,-206 189,-196 395,-304 460,-241 65,63 -35,273 -223,469 -67,69 -136,127 -200,171 181,123 321,97 321,97 241,-4 687,-477 687,-477z"/>
  <path class="fil0" d="M1704 1688l-18 6c-152,137 -372,311 -518,313 0,0 -2,1 -4,1 -1,0 -1,0 -1,0 -3,0 -6,1 -11,1 -1,0 -1,0 -2,0l84 432c9,45 65,61 96,29l153 -159c299,-310 221,-623 221,-623z"/>
  <path class="fil0" d="M537 1405c0,-1 0,-1 0,-1 0,-3 0,-4 0,-4 -3,-146 163,-373 294,-530l5 -18c0,0 -315,-66 -614,244l-153 159c-32,32 -13,87 32,94l435 69c0,-1 0,-2 0,-2 0,-5 0,-9 1,-11z"/>
  <path class="fil2" d="M862 1973c0,0 2,-28 -10,-67 -119,82 -223,115 -265,73 -43,-41 -15,-145 63,-268 -20,-5 -42,-8 -68,-8 -132,3 -241,101 -265,231l-72 400 396 -87c130,-28 224,-141 221,-274z"/>
  <path class="fil0" d="M1964 1102c-147,153 -390,157 -542,10 -152,-146 -157,-389 -10,-541 147,-153 389,-157 541,-10 153,146 157,389 11,541z"/>
  <path class="fil1" d="M1806 950c-63,66 -167,68 -232,5 -66,-63 -67,-167 -5,-232 63,-66 167,-68 233,-5 65,63 67,167 4,232z"/>
  <path class="fil3" d="M2105 403c103,99 226,157 345,173 90,-352 -3,-528 -3,-528 0,0 -180,-86 -527,17 20,118 83,239 185,338z"/>
 </g>
</svg>
