<?xml version="1.0" encoding="UTF-8"?>
<!DOCTYPE svg PUBLIC "-//W3C//DTD SVG 1.1//EN" "http://www.w3.org/Graphics/SVG/1.1/DTD/svg11.dtd">
<!-- Creator: CorelDRAW X8 -->
<svg xmlns="http://www.w3.org/2000/svg" xml:space="preserve" width="42.3332mm" height="42.3332mm" version="1.1" style="shape-rendering:geometricPrecision; text-rendering:geometricPrecision; image-rendering:optimizeQuality; fill-rule:evenodd; clip-rule:evenodd"
viewBox="0 0 4233 4233"
 xmlns:xlink="http://www.w3.org/1999/xlink">
 <defs>
  <style type="text/css">
   <![CDATA[
    .fil15 {fill:#FEFEFE;fill-rule:nonzero}
    .fil7 {fill:#FEF5ED;fill-rule:nonzero}
    .fil1 {fill:#FDCEA3;fill-rule:nonzero}
    .fil10 {fill:#ECF7FD;fill-rule:nonzero}
    .fil4 {fill:#E2AA7E;fill-rule:nonzero}
    .fil9 {fill:#DC7782;fill-rule:nonzero}
    .fil12 {fill:#DDDDDC;fill-rule:nonzero}
    .fil2 {fill:#AD7186;fill-rule:nonzero}
    .fil8 {fill:#A03467;fill-rule:nonzero}
    .fil5 {fill:#775C67;fill-rule:nonzero}
    .fil3 {fill:#6D95B0;fill-rule:nonzero}
    .fil11 {fill:#6C777F;fill-rule:nonzero}
    .fil6 {fill:#4A4651;fill-rule:nonzero}
    .fil14 {fill:#557D95;fill-rule:nonzero}
    .fil13 {fill:#516480;fill-rule:nonzero}
    .fil0 {fill:#3A4F68;fill-rule:nonzero}
   ]]>
  </style>
 </defs>
 <g id="Camada_x0020_1">
  <metadata id="CorelCorpID_0Corel-Layer"/>
  <g id="_717017392">
   <path class="fil0" d="M1912 2405c0,0 -79,46 -137,137 -58,92 -143,477 -30,517 112,39 204,-49 204,-49l34 -209 27 -143 -98 -253z"/>
   <path class="fil1" d="M2043 3381l-131 -16 -29 280c0,0 66,26 123,17l37 -281z"/>
   <path class="fil1" d="M2446 3401l27 258c0,0 73,41 120,-7l-26 -269c0,0 -91,-17 -121,18z"/>
   <path class="fil2" d="M1884 2788l-75 518c0,0 38,70 178,88 139,18 190,-59 190,-59l48 -364 55 360c0,0 56,90 227,66 174,-25 144,-115 144,-115l-71 -461 -264 -59 -166 0 -266 26z"/>
   <path class="fil1" d="M1766 2229c0,0 -89,390 -94,599 0,0 -57,191 -31,280 25,90 59,28 59,28 0,0 13,18 28,16 16,-2 21,-17 21,-17 0,0 12,17 33,10 20,-7 21,-28 21,-28 0,0 21,9 33,2 12,-7 9,-39 0,-58 -9,-20 -19,-51 -19,-61 0,-10 23,-130 1,-171 -22,-41 -29,-50 -28,-67 1,-16 62,-411 99,-479 37,-68 -33,-50 -33,-50l-47 -11 -43 7z"/>
   <path class="fil1" d="M2697 2909c0,0 83,-107 101,-271 18,-165 -81,-382 -78,-383 3,-2 -107,-33 -107,-33l-11 57c0,0 60,179 75,318 15,139 -68,246 -68,246l-26 0c0,0 -42,24 -64,93 -21,70 2,75 23,64 0,0 -13,72 20,61 0,0 3,45 33,45 0,0 9,22 30,21 21,-2 48,-37 45,-112l27 -106z"/>
   <path class="fil3" d="M2515 2189l76 641c0,0 -363,187 -736,-44 0,0 40,-381 44,-502 0,0 -103,-4 -154,-80l117 -359 291 -111 183 0 255 101c0,0 172,302 194,335 0,0 -27,140 -231,104l-39 -85z"/>
   <path class="fil4" d="M2153 1653l0 81c0,0 87,55 183,0l0 -81 -183 0z"/>
   <path class="fil4" d="M2786 1106c0,0 -12,-146 56,-153 68,-8 51,290 -100,314l44 -161z"/>
   <path class="fil4" d="M1684 980c0,0 -36,11 -31,105 6,93 74,150 74,150l0 -77c0,0 -6,-99 -8,-106 -2,-8 -35,-72 -35,-72z"/>
   <path class="fil1" d="M1684 953c0,0 -2,725 574,725 489,0 544,-676 544,-676 0,0 -75,-354 -75,-371 0,-16 -140,-90 -156,-96 -17,-5 -420,3 -440,0 -19,-3 -228,39 -261,39 -33,0 -88,16 -93,27 -6,11 -93,352 -93,352z"/>
   <path class="fil5" d="M2786 1106c0,0 -28,8 -54,0l-57 -203 11 -33c0,0 -31,-168 -100,-219 0,0 -151,71 -352,65 -202,-5 -388,-58 -388,-58 0,0 -52,22 -99,167l0 80c0,0 -50,86 -57,121 0,0 -46,-99 -6,-324l-43 -35 43 -5 -157 -129 126 -20c0,0 -119,-69 -152,-115 -33,-46 -80,-92 -80,-92 0,0 392,-31 423,-42 0,0 -76,-73 -117,-139 0,0 401,81 467,101 0,0 -83,-123 -116,-143 0,0 328,126 533,295 0,0 -38,-130 -53,-169 0,0 194,264 228,361 0,0 114,309 0,536z"/>
   <path class="fil6" d="M2023 1082c0,29 -19,53 -42,53 -23,0 -42,-24 -42,-53 0,-30 19,-53 42,-53 23,0 42,23 42,53z"/>
   <path class="fil6" d="M2483 1082c0,29 -18,53 -42,53 -23,0 -42,-24 -42,-53 0,-30 19,-53 42,-53 24,0 42,23 42,53z"/>
   <path class="fil5" d="M2010 910c0,0 -23,-22 -52,-17 -29,6 -52,39 -52,39 0,0 5,-64 59,-69 0,0 19,-4 45,9l0 38z"/>
   <path class="fil5" d="M2388 854l0 47c0,0 67,-50 127,21 0,0 -10,-102 -127,-68z"/>
   <path class="fil4" d="M2129 1206c0,0 -52,65 24,118 0,0 -78,5 -87,-52 -10,-63 63,-66 63,-66z"/>
   <path class="fil7" d="M2049 1389c0,0 1,16 8,38 57,15 223,50 370,-17 13,-39 14,-71 14,-71 -153,110 -392,50 -392,50z"/>
   <path class="fil8" d="M2057 1427c6,20 18,44 39,65 19,-19 46,-34 75,-45 -50,-4 -91,-14 -114,-20z"/>
   <path class="fil9" d="M2245 1542c114,-3 162,-74 182,-132 -87,40 -181,44 -256,37 -29,11 -56,26 -75,45 28,29 74,53 149,50z"/>
   <path class="fil4" d="M2205 1581c0,0 66,20 109,-4 0,0 -45,55 -109,4z"/>
   <path class="fil10" d="M2037 3652c0,0 -91,-52 -171,-23 0,0 -19,5 -21,45 -3,40 -6,81 -6,81 0,0 128,62 151,56 24,-7 53,-21 53,-24 0,-3 4,-101 4,-101 0,0 1,-27 -10,-34z"/>
   <path class="fil10" d="M1850 4037c138,10 197,-71 213,-99l0 -40c0,6 -107,75 -210,70 -103,-5 -106,-37 -106,-37l0 59c0,0 4,40 103,47z"/>
   <path class="fil11" d="M1813 3772c-22,32 -54,94 -66,159 0,0 1,5 8,11 0,0 37,-146 97,-204 -15,8 -29,20 -39,34z"/>
   <path class="fil11" d="M2043 3744l1 18c0,0 -20,25 -48,19 -15,-2 -30,-15 -46,-28 0,0 -67,69 -78,215l0 0c96,-4 191,-64 191,-70l0 -143c0,0 -8,-9 -20,-11z"/>
   <path class="fil12" d="M1853 3968c-63,-3 -88,-16 -98,-26 0,0 8,25 32,34 24,9 85,-8 85,-8 -6,0 -13,0 -19,0z"/>
   <path class="fil12" d="M1950 3753l0 0c-15,-12 -30,-23 -43,-26 -16,-4 -36,0 -55,11 -60,58 -97,204 -97,204 10,10 35,23 98,26 6,0 13,0 19,0l0 0c11,-146 78,-215 78,-215z"/>
   <path class="fil10" d="M2642 3738c0,0 -2,-55 -4,-68 -3,-14 -19,-35 -45,-34 -27,1 -106,-1 -121,7 -16,7 -19,13 -26,39 -7,27 -5,86 -5,86 0,0 22,43 27,43 6,-1 52,-10 58,-14 5,-5 55,-16 62,-20 8,-5 37,-12 38,-15 1,-3 16,-24 16,-24z"/>
   <path class="fil10" d="M2655 4037c74,-4 93,-38 93,-38l0 -51c-3,12 -17,30 -66,35 -79,8 -217,-10 -258,-81l-1 0 0 33c44,88 157,106 232,102z"/>
   <path class="fil10" d="M2682 3983c49,-5 63,-23 66,-35l0 -14c-7,-24 -17,-51 -29,-78 -12,-6 -37,-15 -69,-9 -47,8 -107,32 -123,122 52,15 112,18 155,14z"/>
   <path class="fil11" d="M2523 3767c-12,8 -22,14 -31,16 -26,4 -51,-30 -51,-30l0 -21c-17,2 -18,25 -18,25l0 145 1 0c19,33 58,54 103,67 8,-44 27,-73 49,-91l0 0c-10,-46 -42,-95 -53,-111z"/>
   <path class="fil12" d="M2719 3856c-31,-68 -74,-132 -112,-128 -35,3 -62,24 -84,39 11,16 43,65 53,111l0 0c23,-18 50,-27 74,-31 32,-6 57,3 69,9z"/>
   <path class="fil13" d="M2349 1739c0,0 -223,526 -467,776 0,0 -12,118 -14,143 0,0 471,-357 656,-850 0,0 -162,-64 -175,-69z"/>
   <path class="fil14" d="M1899 2284c0,0 13,-249 13,-253 1,-3 -38,250 -38,250l25 3z"/>
   <path class="fil4" d="M1650 2953c0,0 -10,65 24,74 35,9 34,-11 38,-41 4,-31 16,-56 26,-68 0,0 -18,46 -17,71 1,25 -8,62 -48,54 -39,-8 -32,-65 -23,-90z"/>
   <path class="fil10" d="M1747 3931c0,0 5,-28 17,-62 1,-2 4,-6 5,-8 13,-17 35,-29 70,-26 91,8 111,134 111,134 0,0 -95,35 -101,35 -7,0 -94,-34 -94,-34l-8 -39z"/>
   <path class="fil15" d="M1981 1058c0,8 -6,15 -13,15 -7,0 -13,-7 -13,-15 0,-8 6,-15 13,-15 7,0 13,7 13,15z"/>
   <path class="fil15" d="M2440 1058c0,8 -6,15 -13,15 -8,0 -13,-7 -13,-15 0,-8 5,-15 13,-15 7,0 13,7 13,15z"/>
  </g>
 </g>
</svg>
