<?xml version="1.0" encoding="iso-8859-1"?>
<!-- Generator: Adobe Illustrator 19.0.0, SVG Export Plug-In . SVG Version: 6.00 Build 0)  -->
<svg xmlns="http://www.w3.org/2000/svg" xmlns:xlink="http://www.w3.org/1999/xlink" version="1.1" id="Layer_1" x="0px" y="0px" viewBox="0 0 512 512" style="enable-background:new 0 0 512 512;" xml:space="preserve" width="512px" height="512px">
<g>
	<g>
		<g>
			<path d="M508.894,3.114c-2.219-2.203-5.391-3.234-8.282-3.102c-96.625,3.922-209.907,56.594-303.86,150.384     c-52.672,3.266-109,28.461-154.392,73.852c-16.093,16.085-29.625,33.547-40.562,51.734c-0.094,0.126-0.516,0.828-0.516,0.828     c-2.188,4.047-1.578,9.204,1.844,12.609c1.125,1.156,2.453,1.97,3.875,2.47c0,0,1.109,0.375,1.609,0.468l73.454,20.47     c-5.312,11.594-10.094,23.188-14.281,34.719c-1.281,3.75-0.454,8.047,2.531,11.031l8.875,8.875     c-6.704,2.891-13.032,7.094-18.579,12.641C38.673,402.029,2.204,511.999,2.204,511.999s109.969-36.47,131.907-58.407     c5.547-5.547,9.75-11.875,12.656-18.578l6.657,6.673c2.984,2.983,7.296,3.828,11.031,2.53     c11.531-4.187,23.125-8.953,34.734-14.281l20.453,73.454c0.109,0.5,0.469,1.609,0.469,1.609c0.516,1.421,1.329,2.734,2.468,3.875     c3.407,3.421,8.562,4.031,12.609,1.844c0,0,0.704-0.422,0.845-0.516c18.172-10.938,35.64-24.469,51.718-40.562     c45.391-45.391,70.594-101.72,73.86-154.392c93.783-93.962,146.455-207.236,150.376-303.861     C512.128,8.504,511.096,5.325,508.894,3.114z M27.438,275.451c8.719-12.781,18.75-24.868,30-36.118     c19-18.992,40.312-34.484,63.344-46.024c17.297-8.671,34.984-14.828,52.719-18.383c-33.719,37.633-61.219,77.868-81.969,118.368     L27.438,275.451z M119.033,438.514c-1.765,1.75-13.25,11.594-66.719,32.578c-5.078,2-10.109,3.923-14.922,5.734     c1.781-4.781,3.688-9.734,5.656-14.765c21.032-53.61,30.891-65.11,32.656-66.892c5.781-5.766,12.954-9.469,20.532-10.672     l33.469,33.485C128.533,425.295,124.955,432.577,119.033,438.514z M318.705,391.217c-11.547,23.031-27.03,44.344-46.031,63.328     c-11.25,11.251-23.344,21.298-36.125,30l-17.844-64.078c40.5-20.75,80.735-48.249,118.375-81.969     C333.518,356.232,327.378,373.92,318.705,391.217z M408.658,226.653c-18.358,25.922-39.422,50.797-62.546,73.938     c-23.142,23.14-48.032,44.188-73.938,62.547c-25.078,17.781-51.156,33.062-77.5,45.438c-10.344,4.875-20.688,9.25-31.031,13.173     l-73.391-73.392c3.922-10.344,8.312-20.688,13.171-31.031c12.375-26.344,27.657-52.422,45.438-77.493     c18.359-25.921,39.406-50.796,62.547-73.937c23.141-23.133,48.016-44.188,73.938-62.556     c24.733-17.539,50.452-32.648,76.453-44.938l91.797,91.805C441.315,176.199,426.205,201.91,408.658,226.653z M462.862,129.294     l-80.156-80.149c36.594-15.078,73.031-24.281,107.251-27.102C487.144,56.27,477.94,92.7,462.862,129.294z" fill="#FFFFFF"/>
			<path d="M317.189,152.146c-11.405,0-22.109,4.445-30.171,12.5c-8.062,8.062-12.5,18.773-12.5,30.172     c0,11.398,4.438,22.109,12.5,30.172c8.062,8.054,18.766,12.492,30.171,12.492c11.391,0,22.109-4.438,30.173-12.492     c16.625-16.641,16.625-43.711,0-60.344C339.299,156.591,328.58,152.146,317.189,152.146z M332.269,209.903     c-4.032,4.032-9.391,6.25-15.079,6.25c-5.703,0-11.062-2.219-15.094-6.25c-4.03-4.031-6.249-9.391-6.249-15.085     c0-5.696,2.218-11.055,6.249-15.087c4.032-4.031,9.391-6.25,15.094-6.25c5.688,0,11.047,2.219,15.079,6.25     C340.581,188.052,340.581,201.583,332.269,209.903z" fill="#FFFFFF"/>
			<path d="M226.674,242.661c-11.406,0-22.109,4.438-30.172,12.5c-8.063,8.055-12.5,18.774-12.5,30.165     c0,11.406,4.438,22.125,12.5,30.172c8.062,8.062,18.766,12.5,30.172,12.5c11.391,0,22.109-4.438,30.172-12.5     c8.063-8.047,12.5-18.766,12.5-30.172c0-11.391-4.437-22.11-12.5-30.165C248.783,247.099,238.064,242.661,226.674,242.661z      M241.752,300.419c-4.016,4.032-9.375,6.251-15.079,6.251c-5.704,0-11.062-2.219-15.094-6.251     c-4.016-4.03-6.234-9.391-6.234-15.093c0-5.688,2.219-11.063,6.234-15.094c4.031-4.017,9.39-6.234,15.094-6.234     c5.704,0,11.062,2.218,15.079,6.249c4.031,4.016,6.25,9.391,6.25,15.079C248.002,291.028,245.783,296.389,241.752,300.419z" fill="#FFFFFF"/>
		</g>
	</g>
</g>
<g>
</g>
<g>
</g>
<g>
</g>
<g>
</g>
<g>
</g>
<g>
</g>
<g>
</g>
<g>
</g>
<g>
</g>
<g>
</g>
<g>
</g>
<g>
</g>
<g>
</g>
<g>
</g>
<g>
</g>
</svg>
